<svg height="646.81276" width="580" xmlns="http://www.w3.org/2000/svg" xmlns:xlink="http://www.w3.org/1999/xlink"><g fill="#fff"><g stroke="#000"><path d="m13.80952383488 15.37907261003h552.38095233024v615.16364122648h-552.38095233024z" fill="#fff" stroke-width="71.33018496"/><text style="text-anchor:middle;dominant-baseline:middle;font-family:sans-serif;font-weight:bold;font-size:1;stroke-width:1.5" transform="matrix(47.55345664 0 0 47.55345664 289.99762232717 90.27576681803)">Map</text><circle cx="211.536796544" cy="161.61070712369" fill="#f00" fill-opacity=".7" r="23.77672832" stroke-width="71.33018496"/><image stroke-width="1.5" transform="matrix(.03962772202 0 0 .03962772202 187.76016333091 137.83407391061)" xlink:href="https://raw.githubusercontent.com/minitorch/diagrams/main/robot.png"/><circle cx="263.845598848" cy="161.61070712369" fill="#ff7100" fill-opacity=".7" r="23.77672832" stroke-width="71.33018496"/><image stroke-width="1.5" transform="matrix(.03962772202 0 0 .03962772202 240.06896563491 137.83407391061)" xlink:href="https://raw.githubusercontent.com/minitorch/diagrams/main/robot.png"/><circle cx="316.154401152" cy="161.61070712369" fill="#ffe300" fill-opacity=".7" r="23.77672832" stroke-width="71.33018496"/><image stroke-width="1.5" transform="matrix(.03962772202 0 0 .03962772202 292.37776793891 137.83407391061)" xlink:href="https://raw.githubusercontent.com/minitorch/diagrams/main/robot.png"/><circle cx="368.463203456" cy="161.61070712369" fill="#af0" fill-opacity=".7" r="23.77672832" stroke-width="71.33018496"/><image stroke-width="1.5" transform="matrix(.03962772202 0 0 .03962772202 344.68657024291 137.83407391061)" xlink:href="https://raw.githubusercontent.com/minitorch/diagrams/main/robot.png"/><path d="m147.33963008 346.12363508786h47.55345664v47.55345664h-47.55345664z" stroke-width="35.66509248"/><path d="m147.33963008 393.67709172786h47.55345664v47.55345664h-47.55345664z" stroke-width="35.66509248"/><path d="m147.33963008 441.23054836786h47.55345664v47.55345664h-47.55345664z" stroke-width="35.66509248"/><path d="m147.33963008 488.78400500786h47.55345664v47.55345664h-47.55345664z" stroke-width="35.66509248"/><text style="text-anchor:middle;dominant-baseline:middle;font-family:sans-serif;font-weight:bold;font-size:.5;fill:#000;stroke-width:0" transform="matrix(47.55345664 0 0 47.55345664 171.11398072717 334.23527092786)">a</text><path d="m385.10691328 346.12363508786h47.55345664v47.55345664h-47.55345664z" stroke-width="35.66509248"/><path d="m385.10691328 393.67709172786h47.55345664v47.55345664h-47.55345664z" stroke-width="35.66509248"/><path d="m385.10691328 441.23054836786h47.55345664v47.55345664h-47.55345664z" stroke-width="35.66509248"/><path d="m385.10691328 488.78400500786h47.55345664v47.55345664h-47.55345664z" stroke-width="35.66509248"/><text style="text-anchor:middle;dominant-baseline:middle;font-family:sans-serif;font-weight:bold;font-size:.5;fill:#000;stroke-width:0" transform="matrix(47.55345664 0 0 47.55345664 408.88126392717 334.23527092786)">out</text><text style="text-anchor:middle;dominant-baseline:middle;font-family:sans-serif;font-weight:bold;font-size:.5;fill:#000;stroke-width:0" transform="matrix(47.55345664 0 0 47.55345664 289.99762232717 298.5654231022)">Block 0 0</text></g><rect fill="none" height="313.8585202388" rx="23.77672832" stroke="#808080" stroke-width="71.33018496" width="456.513183744" x="61.743408128" y="248.63381809563"/></g></svg>