<svg height="1191.31276" width="580" xmlns="http://www.w3.org/2000/svg" xmlns:xlink="http://www.w3.org/1999/xlink"><g fill="#fff"><g stroke="#000"><path d="m13.80952383488 28.32550120523h552.38095233024v1133.02078403608h-552.38095233024z" fill="#fff" stroke-width="71.33018496"/><text style="text-anchor:middle;dominant-baseline:middle;font-family:sans-serif;font-weight:bold;font-size:1;stroke-width:1.5" transform="matrix(47.55345664 0 0 47.55345664 289.99762232717 103.22219541323)">1D Conv (Simple)</text><circle cx="106.919191936" cy="174.55713571889" fill="#f00" fill-opacity=".7" r="23.77672832" stroke-width="71.33018496"/><image stroke-width="1.5" transform="matrix(.03962772202 0 0 .03962772202 83.14255872291 150.78050250581)" xlink:href="https://raw.githubusercontent.com/minitorch/diagrams/main/robot.png"/><circle cx="159.22799424" cy="174.55713571889" fill="#ff7100" fill-opacity=".7" r="23.77672832" stroke-width="71.33018496"/><image stroke-width="1.5" transform="matrix(.03962772202 0 0 .03962772202 135.45136102691 150.78050250581)" xlink:href="https://raw.githubusercontent.com/minitorch/diagrams/main/robot.png"/><circle cx="211.536796544" cy="174.55713571889" fill="#ffe300" fill-opacity=".7" r="23.77672832" stroke-width="71.33018496"/><image stroke-width="1.5" transform="matrix(.03962772202 0 0 .03962772202 187.76016333091 150.78050250581)" xlink:href="https://raw.githubusercontent.com/minitorch/diagrams/main/robot.png"/><circle cx="263.845598848" cy="174.55713571889" fill="#af0" fill-opacity=".7" r="23.77672832" stroke-width="71.33018496"/><image stroke-width="1.5" transform="matrix(.03962772202 0 0 .03962772202 240.06896563491 150.78050250581)" xlink:href="https://raw.githubusercontent.com/minitorch/diagrams/main/robot.png"/><circle cx="316.154401152" cy="174.55713571889" fill="#39ff00" fill-opacity=".7" r="23.77672832" stroke-width="71.33018496"/><image stroke-width="1.5" transform="matrix(.03962772202 0 0 .03962772202 292.37776793891 150.78050250581)" xlink:href="https://raw.githubusercontent.com/minitorch/diagrams/main/robot.png"/><circle cx="368.463203456" cy="174.55713571889" fill="#00ff39" fill-opacity=".7" r="23.77672832" stroke-width="71.33018496"/><image stroke-width="1.5" transform="matrix(.03962772202 0 0 .03962772202 344.68657024291 150.78050250581)" xlink:href="https://raw.githubusercontent.com/minitorch/diagrams/main/robot.png"/><circle cx="420.77200576" cy="174.55713571889" fill="#0fa" fill-opacity=".7" r="23.77672832" stroke-width="71.33018496"/><image stroke-width="1.5" transform="matrix(.03962772202 0 0 .03962772202 396.99537254691 150.78050250581)" xlink:href="https://raw.githubusercontent.com/minitorch/diagrams/main/robot.png"/><circle cx="473.080808064" cy="174.55713571889" fill="#00e3ff" fill-opacity=".7" r="23.77672832" stroke-width="71.33018496"/><image stroke-width="1.5" transform="matrix(.03962772202 0 0 .03962772202 449.30417485091 150.78050250581)" xlink:href="https://raw.githubusercontent.com/minitorch/diagrams/main/robot.png"/><path d="m147.33963008 416.13421165106h47.55345664v47.55345664h-47.55345664z" stroke-width="35.66509248"/><path d="m147.33963008 463.68766829106h47.55345664v47.55345664h-47.55345664z" stroke-width="35.66509248"/><path d="m147.33963008 511.24112493106h47.55345664v47.55345664h-47.55345664z" stroke-width="35.66509248"/><path d="m147.33963008 558.79458157106h47.55345664v47.55345664h-47.55345664z" stroke-width="35.66509248"/><path d="m147.33963008 606.34803821106h47.55345664v47.55345664h-47.55345664z" stroke-width="35.66509248"/><path d="m147.33963008 653.90149485106h47.55345664v47.55345664h-47.55345664z" stroke-width="35.66509248"/><text style="text-anchor:middle;dominant-baseline:middle;font-family:sans-serif;font-weight:bold;font-size:.5;fill:#000;stroke-width:0" transform="matrix(47.55345664 0 0 47.55345664 171.11398072717 404.24584749106)">a</text><path d="m147.33963008 820.33859309106h47.55345664v47.55345664h-47.55345664z" stroke-width="35.66509248"/><path d="m147.33963008 867.89204973106h47.55345664v47.55345664h-47.55345664z" stroke-width="35.66509248"/><path d="m147.33963008 915.44550637106h47.55345664v47.55345664h-47.55345664z" stroke-width="35.66509248"/><text style="text-anchor:middle;dominant-baseline:middle;font-family:sans-serif;font-weight:bold;font-size:.5;fill:#000;stroke-width:0" transform="matrix(47.55345664 0 0 47.55345664 171.11398072717 808.45022893106)">b</text><path d="m385.10691328 546.90621741106h47.55345664v47.55345664h-47.55345664z" stroke-width="35.66509248"/><path d="m385.10691328 594.45967405106h47.55345664v47.55345664h-47.55345664z" stroke-width="35.66509248"/><path d="m385.10691328 642.01313069106h47.55345664v47.55345664h-47.55345664z" stroke-width="35.66509248"/><path d="m385.10691328 689.56658733106h47.55345664v47.55345664h-47.55345664z" stroke-width="35.66509248"/><path d="m385.10691328 737.12004397106h47.55345664v47.55345664h-47.55345664z" stroke-width="35.66509248"/><path d="m385.10691328 784.67350061106h47.55345664v47.55345664h-47.55345664z" stroke-width="35.66509248"/><text style="text-anchor:middle;dominant-baseline:middle;font-family:sans-serif;font-weight:bold;font-size:.5;fill:#000;stroke-width:0" transform="matrix(47.55345664 0 0 47.55345664 408.88126392717 535.01785325106)">out</text><text style="text-anchor:middle;dominant-baseline:middle;font-family:sans-serif;font-weight:bold;font-size:.5;fill:#000;stroke-width:0" transform="matrix(47.55345664 0 0 47.55345664 289.99762232717 368.5759996654)">Block 0 0</text></g><rect fill="none" height="741.8396299988" rx="23.77672832" stroke="#808080" stroke-width="71.33018496" width="456.513183744" x="61.743408128" y="282.97930217883"/></g></svg>