<svg height="937.21276" width="1306" xmlns="http://www.w3.org/2000/svg" xmlns:xlink="http://www.w3.org/1999/xlink"><g fill="#fff"><g stroke="#000"><path d="m31.11428570184 22.31457046726h1244.57142859632v892.58357144642h-1244.57142859632z" fill="#fff" stroke-width="71.42857143"/><text style="text-anchor:middle;dominant-baseline:middle;font-family:sans-serif;font-weight:bold;font-size:1;stroke-width:1.5" transform="matrix(47.61904762 0 0 47.61904762 653.39761904762 97.31457046876)">Shared</text><circle cx="574.828571427" cy="168.74790380353" fill="#f00" fill-opacity=".7" r="23.80952381" stroke-width="71.42857143"/><image stroke-width="1.5" transform="matrix(.03968238095 0 0 .03968238095 551.0191428551 144.93847523162)" xlink:href="https://raw.githubusercontent.com/minitorch/diagrams/main/robot.png"/><circle cx="627.209523809" cy="168.74790380353" fill="#ff7100" fill-opacity=".7" r="23.80952381" stroke-width="71.42857143"/><image stroke-width="1.5" transform="matrix(.03968238095 0 0 .03968238095 603.4000952371 144.93847523162)" xlink:href="https://raw.githubusercontent.com/minitorch/diagrams/main/robot.png"/><circle cx="679.590476191" cy="168.74790380353" fill="#ffe300" fill-opacity=".7" r="23.80952381" stroke-width="71.42857143"/><image stroke-width="1.5" transform="matrix(.03968238095 0 0 .03968238095 655.7810476191 144.93847523162)" xlink:href="https://raw.githubusercontent.com/minitorch/diagrams/main/robot.png"/><circle cx="731.971428573" cy="168.74790380353" fill="#af0" fill-opacity=".7" r="23.80952381" stroke-width="71.42857143"/><image stroke-width="1.5" transform="matrix(.03968238095 0 0 .03968238095 708.1620000011 144.93847523162)" xlink:href="https://raw.githubusercontent.com/minitorch/diagrams/main/robot.png"/><path d="m203.8761904672 383.99152285545h47.61904762v47.61904762h-47.61904762z" stroke-width="35.714285715"/><path d="m203.8761904672 431.61057047545h47.61904762v47.61904762h-47.61904762z" stroke-width="35.714285715"/><path d="m203.8761904672 479.22961809545h47.61904762v47.61904762h-47.61904762z" stroke-width="35.714285715"/><path d="m203.8761904672 526.84866571545h47.61904762v47.61904762h-47.61904762z" stroke-width="35.714285715"/><path d="m203.8761904672 574.46771333545h47.61904762v47.61904762h-47.61904762z" stroke-width="35.714285715"/><path d="m203.8761904672 622.08676095545h47.61904762v47.61904762h-47.61904762z" stroke-width="35.714285715"/><path d="m203.8761904672 669.70580857545h47.61904762v47.61904762h-47.61904762z" stroke-width="35.714285715"/><path d="m203.8761904672 717.32485619545h47.61904762v47.61904762h-47.61904762z" stroke-width="35.714285715"/><text style="text-anchor:middle;dominant-baseline:middle;font-family:sans-serif;font-weight:bold;font-size:.5;fill:#000;stroke-width:0" transform="matrix(47.61904762 0 0 47.61904762 227.68333332482 372.08676095045)">a</text><path d="m346.7333333272 479.22961809545h47.61904762v47.61904762h-47.61904762z" stroke-width="35.714285715"/><path d="m346.7333333272 526.84866571545h47.61904762v47.61904762h-47.61904762z" stroke-width="35.714285715"/><path d="m346.7333333272 574.46771333545h47.61904762v47.61904762h-47.61904762z" stroke-width="35.714285715"/><path d="m346.7333333272 622.08676095545h47.61904762v47.61904762h-47.61904762z" stroke-width="35.714285715"/><text style="text-anchor:middle;dominant-baseline:middle;font-family:sans-serif;font-weight:bold;font-size:.5;fill:#000;stroke-width:0" transform="matrix(47.61904762 0 0 47.61904762 370.54047618482 467.32485619045)">S0'</text><path d="m489.5904761872 383.99152285545h47.61904762v47.61904762h-47.61904762z" stroke-width="35.714285715"/><path d="m489.5904761872 431.61057047545h47.61904762v47.61904762h-47.61904762z" stroke-width="35.714285715"/><path d="m489.5904761872 479.22961809545h47.61904762v47.61904762h-47.61904762z" stroke-width="35.714285715"/><path d="m489.5904761872 526.84866571545h47.61904762v47.61904762h-47.61904762z" stroke-width="35.714285715"/><path d="m489.5904761872 574.46771333545h47.61904762v47.61904762h-47.61904762z" stroke-width="35.714285715"/><path d="m489.5904761872 622.08676095545h47.61904762v47.61904762h-47.61904762z" stroke-width="35.714285715"/><path d="m489.5904761872 669.70580857545h47.61904762v47.61904762h-47.61904762z" stroke-width="35.714285715"/><path d="m489.5904761872 717.32485619545h47.61904762v47.61904762h-47.61904762z" stroke-width="35.714285715"/><text style="text-anchor:middle;dominant-baseline:middle;font-family:sans-serif;font-weight:bold;font-size:.5;fill:#000;stroke-width:0" transform="matrix(47.61904762 0 0 47.61904762 513.39761904482 372.08676095045)">out</text></g><path d="m0 0h3.45620479" stroke="#f00" stroke-width=".6" transform="matrix(-38.83629523887 -27.55568619103 27.55568619103 -38.83629523887 346.7333333272 503.03914190545)"/><path d="m347.9238095177 480.42009428595h45.238095239v45.238095239h-45.238095239z" fill="none" stroke="#f00" stroke-width="107.142857145"/><circle cx="212.50714284832" cy="407.80104666545" fill="#f00" r="4.761904762" stroke="#000" stroke-width="28.571428572"/><path d="m0 0h3.2852" stroke="#ff7100" stroke-width=".6" transform="matrix(-37.77765190552 -28.99004476248 28.99004476248 -37.77765190552 346.7333333272 550.65818952545)"/><path d="m347.9238095177 528.03914190595h45.238095239v45.238095239h-45.238095239z" fill="none" stroke="#ff7100" stroke-width="107.142857145"/><circle cx="222.62619046757" cy="455.42009428545" fill="#ff7100" r="4.761904762" stroke="#000" stroke-width="28.571428572"/><path d="m0 0h3.11930105" stroke="#ffe300" stroke-width=".6" transform="matrix(-36.54283238168 -30.5318704768 30.5318704768 -36.54283238168 346.7333333272 598.27723714545)"/><path d="m347.9238095177 575.65818952595h45.238095239v45.238095239h-45.238095239z" fill="none" stroke="#ffe300" stroke-width="107.142857145"/><circle cx="232.74523808682" cy="503.03914190545" fill="#ffe300" r="4.761904762" stroke="#000" stroke-width="28.571428572"/><path d="m0 0h2.95936675" stroke="#af0" stroke-width=".6" transform="matrix(-35.09840333404 -32.1819171435 32.1819171435 -35.09840333404 346.7333333272 645.89628476545)"/><path d="m347.9238095177 623.27723714595h45.238095239v45.238095239h-45.238095239z" fill="none" stroke="#af0" stroke-width="107.142857145"/><circle cx="242.86428570607" cy="550.65818952545" fill="#af0" r="4.761904762" stroke="#000" stroke-width="28.571428572"/><text style="text-anchor:middle;dominant-baseline:middle;font-family:sans-serif;font-weight:bold;font-size:.5;fill:#000;stroke:#000;stroke-width:0" transform="matrix(47.61904762 0 0 47.61904762 370.54047618482 336.36771333069)">Block 0 0</text><rect fill="none" height="542.86285715371" rx="23.80952381" stroke="#808080" stroke-width="71.42857143" width="514.285714296" x="113.3999999892" y="267.31961809121"/><path d="m769.5904761928 383.99152285545h47.61904762v47.61904762h-47.61904762z" stroke="#000" stroke-width="35.714285715"/><path d="m769.5904761928 431.61057047545h47.61904762v47.61904762h-47.61904762z" stroke="#000" stroke-width="35.714285715"/><path d="m769.5904761928 479.22961809545h47.61904762v47.61904762h-47.61904762z" stroke="#000" stroke-width="35.714285715"/><path d="m769.5904761928 526.84866571545h47.61904762v47.61904762h-47.61904762z" stroke="#000" stroke-width="35.714285715"/><path d="m769.5904761928 574.46771333545h47.61904762v47.61904762h-47.61904762z" stroke="#000" stroke-width="35.714285715"/><path d="m769.5904761928 622.08676095545h47.61904762v47.61904762h-47.61904762z" stroke="#000" stroke-width="35.714285715"/><path d="m769.5904761928 669.70580857545h47.61904762v47.61904762h-47.61904762z" stroke="#000" stroke-width="35.714285715"/><path d="m769.5904761928 717.32485619545h47.61904762v47.61904762h-47.61904762z" stroke="#000" stroke-width="35.714285715"/><text style="text-anchor:middle;dominant-baseline:middle;font-family:sans-serif;font-weight:bold;font-size:.5;fill:#000;stroke:#000;stroke-width:0" transform="matrix(47.61904762 0 0 47.61904762 793.39761905042 372.08676095045)">a</text><path d="m912.4476190528 479.22961809545h47.61904762v47.61904762h-47.61904762z" stroke="#000" stroke-width="35.714285715"/><path d="m912.4476190528 526.84866571545h47.61904762v47.61904762h-47.61904762z" stroke="#000" stroke-width="35.714285715"/><path d="m912.4476190528 574.46771333545h47.61904762v47.61904762h-47.61904762z" stroke="#000" stroke-width="35.714285715"/><path d="m912.4476190528 622.08676095545h47.61904762v47.61904762h-47.61904762z" stroke="#000" stroke-width="35.714285715"/><text style="text-anchor:middle;dominant-baseline:middle;font-family:sans-serif;font-weight:bold;font-size:.5;fill:#000;stroke:#000;stroke-width:0" transform="matrix(47.61904762 0 0 47.61904762 936.25476191042 467.32485619045)">S0'</text><path d="m1055.3047619128 383.99152285545h47.61904762v47.61904762h-47.61904762z" stroke="#000" stroke-width="35.714285715"/><path d="m1055.3047619128 431.61057047545h47.61904762v47.61904762h-47.61904762z" stroke="#000" stroke-width="35.714285715"/><path d="m1055.3047619128 479.22961809545h47.61904762v47.61904762h-47.61904762z" stroke="#000" stroke-width="35.714285715"/><path d="m1055.3047619128 526.84866571545h47.61904762v47.61904762h-47.61904762z" stroke="#000" stroke-width="35.714285715"/><path d="m1055.3047619128 574.46771333545h47.61904762v47.61904762h-47.61904762z" stroke="#000" stroke-width="35.714285715"/><path d="m1055.3047619128 622.08676095545h47.61904762v47.61904762h-47.61904762z" stroke="#000" stroke-width="35.714285715"/><path d="m1055.3047619128 669.70580857545h47.61904762v47.61904762h-47.61904762z" stroke="#000" stroke-width="35.714285715"/><path d="m1055.3047619128 717.32485619545h47.61904762v47.61904762h-47.61904762z" stroke="#000" stroke-width="35.714285715"/><text style="text-anchor:middle;dominant-baseline:middle;font-family:sans-serif;font-weight:bold;font-size:.5;fill:#000;stroke:#000;stroke-width:0" transform="matrix(47.61904762 0 0 47.61904762 1079.11190477042 372.08676095045)">out</text><path d="m0 0h3.45620479" stroke="#f00" stroke-width=".6" transform="matrix(-38.83629523887 27.55568619103 -27.55568619103 -38.83629523887 912.4476190528 503.03914190545)"/><path d="m913.6380952433 480.42009428595h45.238095239v45.238095239h-45.238095239z" fill="none" stroke="#f00" stroke-width="107.142857145"/><circle cx="778.22142857393" cy="598.27723714545" fill="#f00" r="4.761904762" stroke="#000" stroke-width="28.571428572"/><path d="m0 0h3.2852" stroke="#ff7100" stroke-width=".6" transform="matrix(-37.77765190552 28.99004476248 -28.99004476248 -37.77765190552 912.4476190528 550.65818952545)"/><path d="m913.6380952433 528.03914190595h45.238095239v45.238095239h-45.238095239z" fill="none" stroke="#ff7100" stroke-width="107.142857145"/><circle cx="788.34047619318" cy="645.89628476545" fill="#ff7100" r="4.761904762" stroke="#000" stroke-width="28.571428572"/><path d="m0 0h3.11930105" stroke="#ffe300" stroke-width=".6" transform="matrix(-36.54283238168 30.5318704768 -30.5318704768 -36.54283238168 912.4476190528 598.27723714545)"/><path d="m913.6380952433 575.65818952595h45.238095239v45.238095239h-45.238095239z" fill="none" stroke="#ffe300" stroke-width="107.142857145"/><circle cx="798.45952381243" cy="693.51533238545" fill="#ffe300" r="4.761904762" stroke="#000" stroke-width="28.571428572"/><path d="m0 0h2.95936675" stroke="#af0" stroke-width=".6" transform="matrix(-35.09840333404 32.1819171435 -32.1819171435 -35.09840333404 912.4476190528 645.89628476545)"/><path d="m913.6380952433 623.27723714595h45.238095239v45.238095239h-45.238095239z" fill="none" stroke="#af0" stroke-width="107.142857145"/><circle cx="808.57857143168" cy="741.13438000545" fill="#af0" r="4.761904762" stroke="#000" stroke-width="28.571428572"/><text style="text-anchor:middle;dominant-baseline:middle;font-family:sans-serif;font-weight:bold;font-size:.5;fill:#000;stroke:#000;stroke-width:0" transform="matrix(47.61904762 0 0 47.61904762 936.25476191042 336.36771333069)">Block 1 0</text><rect fill="none" height="542.86285715371" rx="23.80952381" stroke="#808080" stroke-width="71.42857143" width="514.285714296" x="679.1142857148" y="267.31961809121"/></g></svg>