<svg height="1009.81276" width="1742" xmlns="http://www.w3.org/2000/svg" xmlns:xlink="http://www.w3.org/1999/xlink"><g fill="#fff"><g stroke="#000"><path d="m41.48571426912 24.04314189514h1659.42857146176v961.72642859066h-1659.42857146176z" fill="#fff" stroke-width="71.42857143"/><text style="text-anchor:middle;dominant-baseline:middle;font-family:sans-serif;font-weight:bold;font-size:1;stroke-width:1.5" transform="matrix(47.61904762 0 0 47.61904762 871.19761904762 99.04314189664)">Blocks</text><circle cx="792.628571427" cy="170.47647523141" fill="#f00" fill-opacity=".7" r="23.80952381" stroke-width="71.42857143"/><image stroke-width="1.5" transform="matrix(.03968238095 0 0 .03968238095 768.8191428551 146.6670466595)" xlink:href="https://raw.githubusercontent.com/minitorch/diagrams/main/robot.png"/><circle cx="845.009523809" cy="170.47647523141" fill="#ff7100" fill-opacity=".7" r="23.80952381" stroke-width="71.42857143"/><image stroke-width="1.5" transform="matrix(.03968238095 0 0 .03968238095 821.2000952371 146.6670466595)" xlink:href="https://raw.githubusercontent.com/minitorch/diagrams/main/robot.png"/><circle cx="897.390476191" cy="170.47647523141" fill="#ffe300" fill-opacity=".7" r="23.80952381" stroke-width="71.42857143"/><image stroke-width="1.5" transform="matrix(.03968238095 0 0 .03968238095 873.5810476191 146.6670466595)" xlink:href="https://raw.githubusercontent.com/minitorch/diagrams/main/robot.png"/><circle cx="949.771428573" cy="170.47647523141" fill="#af0" fill-opacity=".7" r="23.80952381" stroke-width="71.42857143"/><image stroke-width="1.5" transform="matrix(.03968238095 0 0 .03968238095 925.9620000011 146.6670466595)" xlink:href="https://raw.githubusercontent.com/minitorch/diagrams/main/robot.png"/><path d="m225.4857142728 393.33914190253h47.61904762v47.61904762h-47.61904762z" stroke-width="35.714285715"/><path d="m225.4857142728 440.95818952253h47.61904762v47.61904762h-47.61904762z" stroke-width="35.714285715"/><path d="m225.4857142728 488.57723714253h47.61904762v47.61904762h-47.61904762z" stroke-width="35.714285715"/><path d="m225.4857142728 536.19628476253h47.61904762v47.61904762h-47.61904762z" stroke-width="35.714285715"/><path d="m225.4857142728 583.81533238253h47.61904762v47.61904762h-47.61904762z" stroke-width="35.714285715"/><path d="m225.4857142728 631.43438000253h47.61904762v47.61904762h-47.61904762z" stroke-width="35.714285715"/><path d="m225.4857142728 679.05342762253h47.61904762v47.61904762h-47.61904762z" stroke-width="35.714285715"/><path d="m225.4857142728 726.67247524253h47.61904762v47.61904762h-47.61904762z" stroke-width="35.714285715"/><path d="m225.4857142728 774.29152286253h47.61904762v47.61904762h-47.61904762z" stroke-width="35.714285715"/><text style="text-anchor:middle;dominant-baseline:middle;font-family:sans-serif;font-weight:bold;font-size:.5;fill:#000;stroke-width:0" transform="matrix(47.61904762 0 0 47.61904762 249.29285713042 381.43437999753)">a</text><path d="m463.5809523728 393.33914190253h47.61904762v47.61904762h-47.61904762z" stroke-width="35.714285715"/><path d="m463.5809523728 440.95818952253h47.61904762v47.61904762h-47.61904762z" stroke-width="35.714285715"/><path d="m463.5809523728 488.57723714253h47.61904762v47.61904762h-47.61904762z" stroke-width="35.714285715"/><path d="m463.5809523728 536.19628476253h47.61904762v47.61904762h-47.61904762z" stroke-width="35.714285715"/><path d="m463.5809523728 583.81533238253h47.61904762v47.61904762h-47.61904762z" stroke-width="35.714285715"/><path d="m463.5809523728 631.43438000253h47.61904762v47.61904762h-47.61904762z" stroke-width="35.714285715"/><path d="m463.5809523728 679.05342762253h47.61904762v47.61904762h-47.61904762z" stroke-width="35.714285715"/><path d="m463.5809523728 726.67247524253h47.61904762v47.61904762h-47.61904762z" stroke-width="35.714285715"/><path d="m463.5809523728 774.29152286253h47.61904762v47.61904762h-47.61904762z" stroke-width="35.714285715"/><text style="text-anchor:middle;dominant-baseline:middle;font-family:sans-serif;font-weight:bold;font-size:.5;fill:#000;stroke-width:0" transform="matrix(47.61904762 0 0 47.61904762 487.38809523042 381.43437999753)">out</text><text style="text-anchor:middle;dominant-baseline:middle;font-family:sans-serif;font-weight:bold;font-size:.5;fill:#000;stroke-width:0" transform="matrix(47.61904762 0 0 47.61904762 368.34047618042 345.71533237777)">Block 0 0</text></g><rect fill="none" height="600.00571429771" rx="23.80952381" stroke="#808080" stroke-width="71.42857143" width="457.142857152" x="139.7714285568" y="271.90533237629"/><path d="m728.34285714 393.33914190253h47.61904762v47.61904762h-47.61904762z" stroke="#000" stroke-width="35.714285715"/><path d="m728.34285714 440.95818952253h47.61904762v47.61904762h-47.61904762z" stroke="#000" stroke-width="35.714285715"/><path d="m728.34285714 488.57723714253h47.61904762v47.61904762h-47.61904762z" stroke="#000" stroke-width="35.714285715"/><path d="m728.34285714 536.19628476253h47.61904762v47.61904762h-47.61904762z" stroke="#000" stroke-width="35.714285715"/><path d="m728.34285714 583.81533238253h47.61904762v47.61904762h-47.61904762z" stroke="#000" stroke-width="35.714285715"/><path d="m728.34285714 631.43438000253h47.61904762v47.61904762h-47.61904762z" stroke="#000" stroke-width="35.714285715"/><path d="m728.34285714 679.05342762253h47.61904762v47.61904762h-47.61904762z" stroke="#000" stroke-width="35.714285715"/><path d="m728.34285714 726.67247524253h47.61904762v47.61904762h-47.61904762z" stroke="#000" stroke-width="35.714285715"/><path d="m728.34285714 774.29152286253h47.61904762v47.61904762h-47.61904762z" stroke="#000" stroke-width="35.714285715"/><text style="text-anchor:middle;dominant-baseline:middle;font-family:sans-serif;font-weight:bold;font-size:.5;fill:#000;stroke:#000;stroke-width:0" transform="matrix(47.61904762 0 0 47.61904762 752.14999999762 381.43437999753)">a</text><path d="m966.43809524 393.33914190253h47.61904762v47.61904762h-47.61904762z" stroke="#000" stroke-width="35.714285715"/><path d="m966.43809524 440.95818952253h47.61904762v47.61904762h-47.61904762z" stroke="#000" stroke-width="35.714285715"/><path d="m966.43809524 488.57723714253h47.61904762v47.61904762h-47.61904762z" stroke="#000" stroke-width="35.714285715"/><path d="m966.43809524 536.19628476253h47.61904762v47.61904762h-47.61904762z" stroke="#000" stroke-width="35.714285715"/><path d="m966.43809524 583.81533238253h47.61904762v47.61904762h-47.61904762z" stroke="#000" stroke-width="35.714285715"/><path d="m966.43809524 631.43438000253h47.61904762v47.61904762h-47.61904762z" stroke="#000" stroke-width="35.714285715"/><path d="m966.43809524 679.05342762253h47.61904762v47.61904762h-47.61904762z" stroke="#000" stroke-width="35.714285715"/><path d="m966.43809524 726.67247524253h47.61904762v47.61904762h-47.61904762z" stroke="#000" stroke-width="35.714285715"/><path d="m966.43809524 774.29152286253h47.61904762v47.61904762h-47.61904762z" stroke="#000" stroke-width="35.714285715"/><text style="text-anchor:middle;dominant-baseline:middle;font-family:sans-serif;font-weight:bold;font-size:.5;fill:#000;stroke:#000;stroke-width:0" transform="matrix(47.61904762 0 0 47.61904762 990.24523809762 381.43437999753)">out</text><text style="text-anchor:middle;dominant-baseline:middle;font-family:sans-serif;font-weight:bold;font-size:.5;fill:#000;stroke:#000;stroke-width:0" transform="matrix(47.61904762 0 0 47.61904762 871.19761904762 345.71533237777)">Block 1 0</text><rect fill="none" height="600.00571429771" rx="23.80952381" stroke="#808080" stroke-width="71.42857143" width="457.142857152" x="642.628571424" y="271.90533237629"/><path d="m1231.2000000072 393.33914190253h47.61904762v47.61904762h-47.61904762z" stroke="#000" stroke-width="35.714285715"/><path d="m1231.2000000072 440.95818952253h47.61904762v47.61904762h-47.61904762z" stroke="#000" stroke-width="35.714285715"/><path d="m1231.2000000072 488.57723714253h47.61904762v47.61904762h-47.61904762z" stroke="#000" stroke-width="35.714285715"/><path d="m1231.2000000072 536.19628476253h47.61904762v47.61904762h-47.61904762z" stroke="#000" stroke-width="35.714285715"/><path d="m1231.2000000072 583.81533238253h47.61904762v47.61904762h-47.61904762z" stroke="#000" stroke-width="35.714285715"/><path d="m1231.2000000072 631.43438000253h47.61904762v47.61904762h-47.61904762z" stroke="#000" stroke-width="35.714285715"/><path d="m1231.2000000072 679.05342762253h47.61904762v47.61904762h-47.61904762z" stroke="#000" stroke-width="35.714285715"/><path d="m1231.2000000072 726.67247524253h47.61904762v47.61904762h-47.61904762z" stroke="#000" stroke-width="35.714285715"/><path d="m1231.2000000072 774.29152286253h47.61904762v47.61904762h-47.61904762z" stroke="#000" stroke-width="35.714285715"/><text style="text-anchor:middle;dominant-baseline:middle;font-family:sans-serif;font-weight:bold;font-size:.5;fill:#000;stroke:#000;stroke-width:0" transform="matrix(47.61904762 0 0 47.61904762 1255.00714286482 381.43437999753)">a</text><path d="m1469.2952381072 393.33914190253h47.61904762v47.61904762h-47.61904762z" stroke="#000" stroke-width="35.714285715"/><path d="m1469.2952381072 440.95818952253h47.61904762v47.61904762h-47.61904762z" stroke="#000" stroke-width="35.714285715"/><path d="m1469.2952381072 488.57723714253h47.61904762v47.61904762h-47.61904762z" stroke="#000" stroke-width="35.714285715"/><path d="m1469.2952381072 536.19628476253h47.61904762v47.61904762h-47.61904762z" stroke="#000" stroke-width="35.714285715"/><path d="m1469.2952381072 583.81533238253h47.61904762v47.61904762h-47.61904762z" stroke="#000" stroke-width="35.714285715"/><path d="m1469.2952381072 631.43438000253h47.61904762v47.61904762h-47.61904762z" stroke="#000" stroke-width="35.714285715"/><path d="m1469.2952381072 679.05342762253h47.61904762v47.61904762h-47.61904762z" stroke="#000" stroke-width="35.714285715"/><path d="m1469.2952381072 726.67247524253h47.61904762v47.61904762h-47.61904762z" stroke="#000" stroke-width="35.714285715"/><path d="m1469.2952381072 774.29152286253h47.61904762v47.61904762h-47.61904762z" stroke="#000" stroke-width="35.714285715"/><text style="text-anchor:middle;dominant-baseline:middle;font-family:sans-serif;font-weight:bold;font-size:.5;fill:#000;stroke:#000;stroke-width:0" transform="matrix(47.61904762 0 0 47.61904762 1493.10238096482 381.43437999753)">out</text><text style="text-anchor:middle;dominant-baseline:middle;font-family:sans-serif;font-weight:bold;font-size:.5;fill:#000;stroke:#000;stroke-width:0" transform="matrix(47.61904762 0 0 47.61904762 1374.05476191482 345.71533237777)">Block 2 0</text><rect fill="none" height="600.00571429771" rx="23.80952381" stroke="#808080" stroke-width="71.42857143" width="457.142857152" x="1145.4857142912" y="271.90533237629"/></g></svg>