<svg height="1118.71276" width="580" xmlns="http://www.w3.org/2000/svg" xmlns:xlink="http://www.w3.org/1999/xlink"><g fill="#fff"><g stroke="#000"><path d="m13.80952383488 26.59931072587h552.38095233024v1063.9731649948h-552.38095233024z" fill="#fff" stroke-width="71.33018496"/><text style="text-anchor:middle;dominant-baseline:middle;font-family:sans-serif;font-weight:bold;font-size:1;stroke-width:1.5" transform="matrix(47.55345664 0 0 47.55345664 289.99762232717 101.49600493387)">Zip</text><circle cx="211.536796544" cy="172.83094523953" fill="#f00" fill-opacity=".7" r="23.77672832" stroke-width="71.33018496"/><image stroke-width="1.5" transform="matrix(.03962772202 0 0 .03962772202 187.76016333091 149.05431202645)" xlink:href="https://raw.githubusercontent.com/minitorch/diagrams/main/robot.png"/><circle cx="263.845598848" cy="172.83094523953" fill="#ff7100" fill-opacity=".7" r="23.77672832" stroke-width="71.33018496"/><image stroke-width="1.5" transform="matrix(.03962772202 0 0 .03962772202 240.06896563491 149.05431202645)" xlink:href="https://raw.githubusercontent.com/minitorch/diagrams/main/robot.png"/><circle cx="316.154401152" cy="172.83094523953" fill="#ffe300" fill-opacity=".7" r="23.77672832" stroke-width="71.33018496"/><image stroke-width="1.5" transform="matrix(.03962772202 0 0 .03962772202 292.37776793891 149.05431202645)" xlink:href="https://raw.githubusercontent.com/minitorch/diagrams/main/robot.png"/><circle cx="368.463203456" cy="172.83094523953" fill="#af0" fill-opacity=".7" r="23.77672832" stroke-width="71.33018496"/><image stroke-width="1.5" transform="matrix(.03962772202 0 0 .03962772202 344.68657024291 149.05431202645)" xlink:href="https://raw.githubusercontent.com/minitorch/diagrams/main/robot.png"/><path d="m147.33963008 406.7994681093h47.55345664v47.55345664h-47.55345664z" stroke-width="35.66509248"/><path d="m147.33963008 454.3529247493h47.55345664v47.55345664h-47.55345664z" stroke-width="35.66509248"/><path d="m147.33963008 501.9063813893h47.55345664v47.55345664h-47.55345664z" stroke-width="35.66509248"/><path d="m147.33963008 549.4598380293h47.55345664v47.55345664h-47.55345664z" stroke-width="35.66509248"/><text style="text-anchor:middle;dominant-baseline:middle;font-family:sans-serif;font-weight:bold;font-size:.5;fill:#000;stroke-width:0" transform="matrix(47.55345664 0 0 47.55345664 171.11398072717 394.9111039493)">a</text><path d="m147.33963008 715.8969362693h47.55345664v47.55345664h-47.55345664z" stroke-width="35.66509248"/><path d="m147.33963008 763.4503929093h47.55345664v47.55345664h-47.55345664z" stroke-width="35.66509248"/><path d="m147.33963008 811.0038495493h47.55345664v47.55345664h-47.55345664z" stroke-width="35.66509248"/><path d="m147.33963008 858.5573061893h47.55345664v47.55345664h-47.55345664z" stroke-width="35.66509248"/><text style="text-anchor:middle;dominant-baseline:middle;font-family:sans-serif;font-weight:bold;font-size:.5;fill:#000;stroke-width:0" transform="matrix(47.55345664 0 0 47.55345664 171.11398072717 704.0085721093)">b</text><path d="m385.10691328 561.3482021893h47.55345664v47.55345664h-47.55345664z" stroke-width="35.66509248"/><path d="m385.10691328 608.9016588293h47.55345664v47.55345664h-47.55345664z" stroke-width="35.66509248"/><path d="m385.10691328 656.4551154693h47.55345664v47.55345664h-47.55345664z" stroke-width="35.66509248"/><path d="m385.10691328 704.0085721093h47.55345664v47.55345664h-47.55345664z" stroke-width="35.66509248"/><text style="text-anchor:middle;dominant-baseline:middle;font-family:sans-serif;font-weight:bold;font-size:.5;fill:#000;stroke-width:0" transform="matrix(47.55345664 0 0 47.55345664 408.88126392717 549.4598380293)">out</text><text style="text-anchor:middle;dominant-baseline:middle;font-family:sans-serif;font-weight:bold;font-size:.5;fill:#000;stroke-width:0" transform="matrix(47.55345664 0 0 47.55345664 289.99762232717 359.24125612364)">Block 0 0</text></g><rect fill="none" height="684.7754820308" rx="23.77672832" stroke="#808080" stroke-width="71.33018496" width="456.513183744" x="61.743408128" y="278.39990430107"/></g></svg>