<svg height="876.71276" width="726" xmlns="http://www.w3.org/2000/svg" xmlns:xlink="http://www.w3.org/1999/xlink"><g fill="#fff"><g stroke="#000"><path d="m17.2857142788 20.87409427736h691.4285714424v834.96452382622h-691.4285714424z" fill="#fff" stroke-width="71.42857143"/><text style="text-anchor:middle;dominant-baseline:middle;font-family:sans-serif;font-weight:bold;font-size:1;stroke-width:1.5" transform="matrix(47.61904762 0 0 47.61904762 362.99761904762 95.87409427886)">Broadcast</text><circle cx="310.619047618" cy="167.30742761363" fill="#f00" fill-opacity=".7" r="23.80952381" stroke-width="71.42857143"/><image stroke-width="1.5" transform="matrix(.03968238095 0 0 .03968238095 286.8096190461 143.49799904172)" xlink:href="https://raw.githubusercontent.com/minitorch/diagrams/main/robot.png"/><circle cx="363" cy="167.30742761363" fill="#ff7100" fill-opacity=".7" r="23.80952381" stroke-width="71.42857143"/><image stroke-width="1.5" transform="matrix(.03968238095 0 0 .03968238095 339.1905714281 143.49799904172)" xlink:href="https://raw.githubusercontent.com/minitorch/diagrams/main/robot.png"/><circle cx="415.380952382" cy="167.30742761363" fill="#ffe300" fill-opacity=".7" r="23.80952381" stroke-width="71.42857143"/><image stroke-width="1.5" transform="matrix(.03968238095 0 0 .03968238095 391.5715238101 143.49799904172)" xlink:href="https://raw.githubusercontent.com/minitorch/diagrams/main/robot.png"/><circle cx="310.619047618" cy="219.68837999563" fill="#af0" fill-opacity=".7" r="23.80952381" stroke-width="71.42857143"/><image stroke-width="1.5" transform="matrix(.03968238095 0 0 .03968238095 286.8096190461 195.87895142372)" xlink:href="https://raw.githubusercontent.com/minitorch/diagrams/main/robot.png"/><circle cx="363" cy="219.68837999563" fill="#39ff00" fill-opacity=".7" r="23.80952381" stroke-width="71.42857143"/><image stroke-width="1.5" transform="matrix(.03968238095 0 0 .03968238095 339.1905714281 195.87895142372)" xlink:href="https://raw.githubusercontent.com/minitorch/diagrams/main/robot.png"/><circle cx="415.380952382" cy="219.68837999563" fill="#00ff39" fill-opacity=".7" r="23.80952381" stroke-width="71.42857143"/><image stroke-width="1.5" transform="matrix(.03968238095 0 0 .03968238095 391.5715238101 195.87895142372)" xlink:href="https://raw.githubusercontent.com/minitorch/diagrams/main/robot.png"/><circle cx="310.619047618" cy="272.06933237763" fill="#0fa" fill-opacity=".7" r="23.80952381" stroke-width="71.42857143"/><image stroke-width="1.5" transform="matrix(.03968238095 0 0 .03968238095 286.8096190461 248.25990380572)" xlink:href="https://raw.githubusercontent.com/minitorch/diagrams/main/robot.png"/><circle cx="363" cy="272.06933237763" fill="#00e3ff" fill-opacity=".7" r="23.80952381" stroke-width="71.42857143"/><image stroke-width="1.5" transform="matrix(.03968238095 0 0 .03968238095 339.1905714281 248.25990380572)" xlink:href="https://raw.githubusercontent.com/minitorch/diagrams/main/robot.png"/><circle cx="415.380952382" cy="272.06933237763" fill="#0071ff" fill-opacity=".7" r="23.80952381" stroke-width="71.42857143"/><image stroke-width="1.5" transform="matrix(.03968238095 0 0 .03968238095 391.5715238101 248.25990380572)" xlink:href="https://raw.githubusercontent.com/minitorch/diagrams/main/robot.png"/><path d="m172.52380952 468.26533238155h47.61904762v47.61904762h-47.61904762z" stroke-width="35.714285715"/><path d="m220.14285714 468.26533238155h47.61904762v47.61904762h-47.61904762z" stroke-width="35.714285715"/><text style="text-anchor:middle;dominant-baseline:middle;font-family:sans-serif;font-weight:bold;font-size:.5;fill:#000;stroke-width:0" transform="matrix(47.61904762 0 0 47.61904762 220.14047618762 456.36057047655)">a</text><path d="m196.33333333 634.93199905155h47.61904762v47.61904762h-47.61904762z" stroke-width="35.714285715"/><path d="m196.33333333 682.55104667155h47.61904762v47.61904762h-47.61904762z" stroke-width="35.714285715"/><text style="text-anchor:middle;dominant-baseline:middle;font-family:sans-serif;font-weight:bold;font-size:.5;fill:#000;stroke-width:0" transform="matrix(47.61904762 0 0 47.61904762 220.14047618762 623.02723714655)">b</text><path d="m458.23809524 551.59866571655h47.61904762v47.61904762h-47.61904762z" stroke-width="35.714285715"/><path d="m458.23809524 599.21771333655h47.61904762v47.61904762h-47.61904762z" stroke-width="35.714285715"/><path d="m505.85714286 551.59866571655h47.61904762v47.61904762h-47.61904762z" stroke-width="35.714285715"/><path d="m505.85714286 599.21771333655h47.61904762v47.61904762h-47.61904762z" stroke-width="35.714285715"/><text style="text-anchor:middle;dominant-baseline:middle;font-family:sans-serif;font-weight:bold;font-size:.5;fill:#000;stroke-width:0" transform="matrix(47.61904762 0 0 47.61904762 505.85476190762 539.69390381155)">out</text><text style="text-anchor:middle;dominant-baseline:middle;font-family:sans-serif;font-weight:bold;font-size:.5;fill:#000;stroke-width:0" transform="matrix(47.61904762 0 0 47.61904762 362.99761904762 420.64152285679)">Block 0 0</text></g><rect fill="none" height="400.00571429371" rx="23.80952381" stroke="#808080" stroke-width="71.42857143" width="571.42857144" x="77.28571428" y="363.49818952231"/></g></svg>