<svg height="1917.31276" width="1161" xmlns="http://www.w3.org/2000/svg" xmlns:xlink="http://www.w3.org/1999/xlink"><g fill="#fff"><g stroke="#000"><path d="m27.642857184 45.62670488727h1105.714285632v1825.06895463101h-1105.714285632z" fill="#fff" stroke-width="71.3916765"/><text style="text-anchor:middle;dominant-baseline:middle;font-family:sans-serif;font-weight:bold;font-size:1;stroke-width:1.5" transform="matrix(47.594451 0 0 47.594451 580.49762027745 120.58796521227)">1D Conv (Full)</text><circle cx="397.26136365" cy="191.98440115737" fill="#f00" fill-opacity=".7" r="23.7972255" stroke-width="71.3916765"/><image stroke-width="1.5" transform="matrix(.03966188385 0 0 .03966188385 373.4642333389 168.18727084627)" xlink:href="https://raw.githubusercontent.com/minitorch/diagrams/main/robot.png"/><circle cx="449.61525975" cy="191.98440115737" fill="#ff7100" fill-opacity=".7" r="23.7972255" stroke-width="71.3916765"/><image stroke-width="1.5" transform="matrix(.03966188385 0 0 .03966188385 425.8181294389 168.18727084627)" xlink:href="https://raw.githubusercontent.com/minitorch/diagrams/main/robot.png"/><circle cx="501.96915585" cy="191.98440115737" fill="#ffe300" fill-opacity=".7" r="23.7972255" stroke-width="71.3916765"/><image stroke-width="1.5" transform="matrix(.03966188385 0 0 .03966188385 478.1720255389 168.18727084627)" xlink:href="https://raw.githubusercontent.com/minitorch/diagrams/main/robot.png"/><circle cx="554.32305195" cy="191.98440115737" fill="#af0" fill-opacity=".7" r="23.7972255" stroke-width="71.3916765"/><image stroke-width="1.5" transform="matrix(.03966188385 0 0 .03966188385 530.5259216389 168.18727084627)" xlink:href="https://raw.githubusercontent.com/minitorch/diagrams/main/robot.png"/><circle cx="606.67694805" cy="191.98440115737" fill="#39ff00" fill-opacity=".7" r="23.7972255" stroke-width="71.3916765"/><image stroke-width="1.5" transform="matrix(.03966188385 0 0 .03966188385 582.8798177389 168.18727084627)" xlink:href="https://raw.githubusercontent.com/minitorch/diagrams/main/robot.png"/><circle cx="659.03084415" cy="191.98440115737" fill="#00ff39" fill-opacity=".7" r="23.7972255" stroke-width="71.3916765"/><image stroke-width="1.5" transform="matrix(.03966188385 0 0 .03966188385 635.2337138389 168.18727084627)" xlink:href="https://raw.githubusercontent.com/minitorch/diagrams/main/robot.png"/><circle cx="711.38474025" cy="191.98440115737" fill="#0fa" fill-opacity=".7" r="23.7972255" stroke-width="71.3916765"/><image stroke-width="1.5" transform="matrix(.03966188385 0 0 .03966188385 687.5876099389 168.18727084627)" xlink:href="https://raw.githubusercontent.com/minitorch/diagrams/main/robot.png"/><circle cx="763.73863635" cy="191.98440115737" fill="#00e3ff" fill-opacity=".7" r="23.7972255" stroke-width="71.3916765"/><image stroke-width="1.5" transform="matrix(.03966188385 0 0 .03966188385 739.9415060389 168.18727084627)" xlink:href="https://raw.githubusercontent.com/minitorch/diagrams/main/robot.png"/><path d="m186.41794572 509.92085479369h47.594451v47.594451h-47.594451z" stroke-width="35.69583825"/><path d="m186.41794572 557.51530579369h47.594451v47.594451h-47.594451z" stroke-width="35.69583825"/><path d="m186.41794572 605.10975679369h47.594451v47.594451h-47.594451z" stroke-width="35.69583825"/><path d="m186.41794572 652.70420779369h47.594451v47.594451h-47.594451z" stroke-width="35.69583825"/><path d="m186.41794572 700.29865879369h47.594451v47.594451h-47.594451z" stroke-width="35.69583825"/><path d="m186.41794572 747.89310979369h47.594451v47.594451h-47.594451z" stroke-width="35.69583825"/><path d="m186.41794572 795.48756079369h47.594451v47.594451h-47.594451z" stroke-width="35.69583825"/><path d="m186.41794572 843.08201179369h47.594451v47.594451h-47.594451z" stroke-width="35.69583825"/><path d="m186.41794572 890.67646279369h47.594451v47.594451h-47.594451z" stroke-width="35.69583825"/><path d="m186.41794572 938.27091379369h47.594451v47.594451h-47.594451z" stroke-width="35.69583825"/><path d="m186.41794572 985.86536479369h47.594451v47.594451h-47.594451z" stroke-width="35.69583825"/><path d="m186.41794572 1033.45981579369h47.594451v47.594451h-47.594451z" stroke-width="35.69583825"/><path d="m186.41794572 1081.05426679369h47.594451v47.594451h-47.594451z" stroke-width="35.69583825"/><path d="m186.41794572 1128.64871779369h47.594451v47.594451h-47.594451z" stroke-width="35.69583825"/><path d="m186.41794572 1176.24316879369h47.594451v47.594451h-47.594451z" stroke-width="35.69583825"/><text style="text-anchor:middle;dominant-baseline:middle;font-family:sans-serif;font-weight:bold;font-size:.5;fill:#000;stroke-width:0" transform="matrix(47.594451 0 0 47.594451 210.21279149745 498.02224204369)">a</text><path d="m186.41794572 1342.82374729369h47.594451v47.594451h-47.594451z" stroke-width="35.69583825"/><path d="m186.41794572 1390.41819829369h47.594451v47.594451h-47.594451z" stroke-width="35.69583825"/><path d="m186.41794572 1438.01264929369h47.594451v47.594451h-47.594451z" stroke-width="35.69583825"/><path d="m186.41794572 1485.60710029369h47.594451v47.594451h-47.594451z" stroke-width="35.69583825"/><text style="text-anchor:middle;dominant-baseline:middle;font-family:sans-serif;font-weight:bold;font-size:.5;fill:#000;stroke-width:0" transform="matrix(47.594451 0 0 47.594451 210.21279149745 1330.92513454369)">b</text><path d="m424.39020072 664.60282054369h47.594451v47.594451h-47.594451z" stroke-width="35.69583825"/><path d="m424.39020072 712.19727154369h47.594451v47.594451h-47.594451z" stroke-width="35.69583825"/><path d="m424.39020072 759.79172254369h47.594451v47.594451h-47.594451z" stroke-width="35.69583825"/><path d="m424.39020072 807.38617354369h47.594451v47.594451h-47.594451z" stroke-width="35.69583825"/><path d="m424.39020072 854.98062454369h47.594451v47.594451h-47.594451z" stroke-width="35.69583825"/><path d="m424.39020072 902.57507554369h47.594451v47.594451h-47.594451z" stroke-width="35.69583825"/><path d="m424.39020072 950.16952654369h47.594451v47.594451h-47.594451z" stroke-width="35.69583825"/><path d="m424.39020072 997.76397754369h47.594451v47.594451h-47.594451z" stroke-width="35.69583825"/><path d="m424.39020072 1045.35842854369h47.594451v47.594451h-47.594451z" stroke-width="35.69583825"/><path d="m424.39020072 1092.95287954369h47.594451v47.594451h-47.594451z" stroke-width="35.69583825"/><path d="m424.39020072 1140.54733054369h47.594451v47.594451h-47.594451z" stroke-width="35.69583825"/><path d="m424.39020072 1188.14178154369h47.594451v47.594451h-47.594451z" stroke-width="35.69583825"/><path d="m424.39020072 1235.73623254369h47.594451v47.594451h-47.594451z" stroke-width="35.69583825"/><path d="m424.39020072 1283.33068354369h47.594451v47.594451h-47.594451z" stroke-width="35.69583825"/><path d="m424.39020072 1330.92513454369h47.594451v47.594451h-47.594451z" stroke-width="35.69583825"/><text style="text-anchor:middle;dominant-baseline:middle;font-family:sans-serif;font-weight:bold;font-size:.5;fill:#000;stroke-width:0" transform="matrix(47.594451 0 0 47.594451 448.18504649745 652.70420779369)">out</text><text style="text-anchor:middle;dominant-baseline:middle;font-family:sans-serif;font-weight:bold;font-size:.5;fill:#000;stroke-width:0" transform="matrix(47.594451 0 0 47.594451 329.19891899745 462.32164434859)">Block 0 0</text></g><rect fill="none" height="1313.61255893412" rx="23.7972255" stroke="#808080" stroke-width="71.3916765" width="456.9067296" x="100.74793392" y="329.05670560408"/><path d="m689.01534828 509.92085479369h47.594451v47.594451h-47.594451z" stroke="#000" stroke-width="35.69583825"/><path d="m689.01534828 557.51530579369h47.594451v47.594451h-47.594451z" stroke="#000" stroke-width="35.69583825"/><path d="m689.01534828 605.10975679369h47.594451v47.594451h-47.594451z" stroke="#000" stroke-width="35.69583825"/><path d="m689.01534828 652.70420779369h47.594451v47.594451h-47.594451z" stroke="#000" stroke-width="35.69583825"/><path d="m689.01534828 700.29865879369h47.594451v47.594451h-47.594451z" stroke="#000" stroke-width="35.69583825"/><path d="m689.01534828 747.89310979369h47.594451v47.594451h-47.594451z" stroke="#000" stroke-width="35.69583825"/><path d="m689.01534828 795.48756079369h47.594451v47.594451h-47.594451z" stroke="#000" stroke-width="35.69583825"/><path d="m689.01534828 843.08201179369h47.594451v47.594451h-47.594451z" stroke="#000" stroke-width="35.69583825"/><path d="m689.01534828 890.67646279369h47.594451v47.594451h-47.594451z" stroke="#000" stroke-width="35.69583825"/><path d="m689.01534828 938.27091379369h47.594451v47.594451h-47.594451z" stroke="#000" stroke-width="35.69583825"/><path d="m689.01534828 985.86536479369h47.594451v47.594451h-47.594451z" stroke="#000" stroke-width="35.69583825"/><path d="m689.01534828 1033.45981579369h47.594451v47.594451h-47.594451z" stroke="#000" stroke-width="35.69583825"/><path d="m689.01534828 1081.05426679369h47.594451v47.594451h-47.594451z" stroke="#000" stroke-width="35.69583825"/><path d="m689.01534828 1128.64871779369h47.594451v47.594451h-47.594451z" stroke="#000" stroke-width="35.69583825"/><path d="m689.01534828 1176.24316879369h47.594451v47.594451h-47.594451z" stroke="#000" stroke-width="35.69583825"/><text style="text-anchor:middle;dominant-baseline:middle;font-family:sans-serif;font-weight:bold;font-size:.5;fill:#000;stroke:#000;stroke-width:0" transform="matrix(47.594451 0 0 47.594451 712.81019405745 498.02224204369)">a</text><path d="m689.01534828 1342.82374729369h47.594451v47.594451h-47.594451z" stroke="#000" stroke-width="35.69583825"/><path d="m689.01534828 1390.41819829369h47.594451v47.594451h-47.594451z" stroke="#000" stroke-width="35.69583825"/><path d="m689.01534828 1438.01264929369h47.594451v47.594451h-47.594451z" stroke="#000" stroke-width="35.69583825"/><path d="m689.01534828 1485.60710029369h47.594451v47.594451h-47.594451z" stroke="#000" stroke-width="35.69583825"/><text style="text-anchor:middle;dominant-baseline:middle;font-family:sans-serif;font-weight:bold;font-size:.5;fill:#000;stroke:#000;stroke-width:0" transform="matrix(47.594451 0 0 47.594451 712.81019405745 1330.92513454369)">b</text><path d="m926.98760328 664.60282054369h47.594451v47.594451h-47.594451z" stroke="#000" stroke-width="35.69583825"/><path d="m926.98760328 712.19727154369h47.594451v47.594451h-47.594451z" stroke="#000" stroke-width="35.69583825"/><path d="m926.98760328 759.79172254369h47.594451v47.594451h-47.594451z" stroke="#000" stroke-width="35.69583825"/><path d="m926.98760328 807.38617354369h47.594451v47.594451h-47.594451z" stroke="#000" stroke-width="35.69583825"/><path d="m926.98760328 854.98062454369h47.594451v47.594451h-47.594451z" stroke="#000" stroke-width="35.69583825"/><path d="m926.98760328 902.57507554369h47.594451v47.594451h-47.594451z" stroke="#000" stroke-width="35.69583825"/><path d="m926.98760328 950.16952654369h47.594451v47.594451h-47.594451z" stroke="#000" stroke-width="35.69583825"/><path d="m926.98760328 997.76397754369h47.594451v47.594451h-47.594451z" stroke="#000" stroke-width="35.69583825"/><path d="m926.98760328 1045.35842854369h47.594451v47.594451h-47.594451z" stroke="#000" stroke-width="35.69583825"/><path d="m926.98760328 1092.95287954369h47.594451v47.594451h-47.594451z" stroke="#000" stroke-width="35.69583825"/><path d="m926.98760328 1140.54733054369h47.594451v47.594451h-47.594451z" stroke="#000" stroke-width="35.69583825"/><path d="m926.98760328 1188.14178154369h47.594451v47.594451h-47.594451z" stroke="#000" stroke-width="35.69583825"/><path d="m926.98760328 1235.73623254369h47.594451v47.594451h-47.594451z" stroke="#000" stroke-width="35.69583825"/><path d="m926.98760328 1283.33068354369h47.594451v47.594451h-47.594451z" stroke="#000" stroke-width="35.69583825"/><path d="m926.98760328 1330.92513454369h47.594451v47.594451h-47.594451z" stroke="#000" stroke-width="35.69583825"/><text style="text-anchor:middle;dominant-baseline:middle;font-family:sans-serif;font-weight:bold;font-size:.5;fill:#000;stroke:#000;stroke-width:0" transform="matrix(47.594451 0 0 47.594451 950.78244905745 652.70420779369)">out</text><text style="text-anchor:middle;dominant-baseline:middle;font-family:sans-serif;font-weight:bold;font-size:.5;fill:#000;stroke:#000;stroke-width:0" transform="matrix(47.594451 0 0 47.594451 831.79632155745 462.32164434859)">Block 1 0</text><rect fill="none" height="1313.61255893412" rx="23.7972255" stroke="#808080" stroke-width="71.3916765" width="456.9067296" x="603.34533648" y="329.05670560408"/></g></svg>