<svg height="1699.51276" width="580" xmlns="http://www.w3.org/2000/svg" xmlns:xlink="http://www.w3.org/1999/xlink"><g fill="#fff"><g stroke="#000"><path d="m13.80952383488 40.40883456075h552.38095233024v1616.35411732504h-552.38095233024z" fill="#fff" stroke-width="71.33018496"/><text style="text-anchor:middle;dominant-baseline:middle;font-family:sans-serif;font-weight:bold;font-size:1;stroke-width:1.5" transform="matrix(47.55345664 0 0 47.55345664 289.99762232717 115.30552876875)">Dot</text><circle cx="106.919191936" cy="186.64046907441" fill="#f00" fill-opacity=".7" r="23.77672832" stroke-width="71.33018496"/><image stroke-width="1.5" transform="matrix(.03962772202 0 0 .03962772202 83.14255872291 162.86383586133)" xlink:href="https://raw.githubusercontent.com/minitorch/diagrams/main/robot.png"/><circle cx="159.22799424" cy="186.64046907441" fill="#ff7100" fill-opacity=".7" r="23.77672832" stroke-width="71.33018496"/><image stroke-width="1.5" transform="matrix(.03962772202 0 0 .03962772202 135.45136102691 162.86383586133)" xlink:href="https://raw.githubusercontent.com/minitorch/diagrams/main/robot.png"/><circle cx="211.536796544" cy="186.64046907441" fill="#ffe300" fill-opacity=".7" r="23.77672832" stroke-width="71.33018496"/><image stroke-width="1.5" transform="matrix(.03962772202 0 0 .03962772202 187.76016333091 162.86383586133)" xlink:href="https://raw.githubusercontent.com/minitorch/diagrams/main/robot.png"/><circle cx="263.845598848" cy="186.64046907441" fill="#af0" fill-opacity=".7" r="23.77672832" stroke-width="71.33018496"/><image stroke-width="1.5" transform="matrix(.03962772202 0 0 .03962772202 240.06896563491 162.86383586133)" xlink:href="https://raw.githubusercontent.com/minitorch/diagrams/main/robot.png"/><circle cx="316.154401152" cy="186.64046907441" fill="#39ff00" fill-opacity=".7" r="23.77672832" stroke-width="71.33018496"/><image stroke-width="1.5" transform="matrix(.03962772202 0 0 .03962772202 292.37776793891 162.86383586133)" xlink:href="https://raw.githubusercontent.com/minitorch/diagrams/main/robot.png"/><circle cx="368.463203456" cy="186.64046907441" fill="#00ff39" fill-opacity=".7" r="23.77672832" stroke-width="71.33018496"/><image stroke-width="1.5" transform="matrix(.03962772202 0 0 .03962772202 344.68657024291 162.86383586133)" xlink:href="https://raw.githubusercontent.com/minitorch/diagrams/main/robot.png"/><circle cx="420.77200576" cy="186.64046907441" fill="#0fa" fill-opacity=".7" r="23.77672832" stroke-width="71.33018496"/><image stroke-width="1.5" transform="matrix(.03962772202 0 0 .03962772202 396.99537254691 162.86383586133)" xlink:href="https://raw.githubusercontent.com/minitorch/diagrams/main/robot.png"/><circle cx="473.080808064" cy="186.64046907441" fill="#00e3ff" fill-opacity=".7" r="23.77672832" stroke-width="71.33018496"/><image stroke-width="1.5" transform="matrix(.03962772202 0 0 .03962772202 449.30417485091 162.86383586133)" xlink:href="https://raw.githubusercontent.com/minitorch/diagrams/main/robot.png"/><path d="m147.33963008 481.47741644338h47.55345664v47.55345664h-47.55345664z" stroke-width="35.66509248"/><path d="m147.33963008 529.03087308338h47.55345664v47.55345664h-47.55345664z" stroke-width="35.66509248"/><path d="m147.33963008 576.58432972338h47.55345664v47.55345664h-47.55345664z" stroke-width="35.66509248"/><path d="m147.33963008 624.13778636338h47.55345664v47.55345664h-47.55345664z" stroke-width="35.66509248"/><path d="m147.33963008 671.69124300338h47.55345664v47.55345664h-47.55345664z" stroke-width="35.66509248"/><path d="m147.33963008 719.24469964338h47.55345664v47.55345664h-47.55345664z" stroke-width="35.66509248"/><path d="m147.33963008 766.79815628338h47.55345664v47.55345664h-47.55345664z" stroke-width="35.66509248"/><path d="m147.33963008 814.35161292338h47.55345664v47.55345664h-47.55345664z" stroke-width="35.66509248"/><text style="text-anchor:middle;dominant-baseline:middle;font-family:sans-serif;font-weight:bold;font-size:.5;fill:#000;stroke-width:0" transform="matrix(47.55345664 0 0 47.55345664 171.11398072717 469.58905228338)">a</text><path d="m147.33963008 980.78871116338h47.55345664v47.55345664h-47.55345664z" stroke-width="35.66509248"/><path d="m147.33963008 1028.34216780338h47.55345664v47.55345664h-47.55345664z" stroke-width="35.66509248"/><path d="m147.33963008 1075.89562444338h47.55345664v47.55345664h-47.55345664z" stroke-width="35.66509248"/><path d="m147.33963008 1123.44908108338h47.55345664v47.55345664h-47.55345664z" stroke-width="35.66509248"/><path d="m147.33963008 1171.00253772338h47.55345664v47.55345664h-47.55345664z" stroke-width="35.66509248"/><path d="m147.33963008 1218.55599436338h47.55345664v47.55345664h-47.55345664z" stroke-width="35.66509248"/><path d="m147.33963008 1266.10945100338h47.55345664v47.55345664h-47.55345664z" stroke-width="35.66509248"/><path d="m147.33963008 1313.66290764338h47.55345664v47.55345664h-47.55345664z" stroke-width="35.66509248"/><text style="text-anchor:middle;dominant-baseline:middle;font-family:sans-serif;font-weight:bold;font-size:.5;fill:#000;stroke-width:0" transform="matrix(47.55345664 0 0 47.55345664 171.11398072717 968.90034700338)">b</text><path d="m385.10691328 897.57016204338h47.55345664v47.55345664h-47.55345664z" stroke-width="35.66509248"/><text style="text-anchor:middle;dominant-baseline:middle;font-family:sans-serif;font-weight:bold;font-size:.5;fill:#000;stroke-width:0" transform="matrix(47.55345664 0 0 47.55345664 408.88126392717 885.68179788338)">out</text><text style="text-anchor:middle;dominant-baseline:middle;font-family:sans-serif;font-weight:bold;font-size:.5;fill:#000;stroke-width:0" transform="matrix(47.55345664 0 0 47.55345664 289.99762232717 433.91920445772)">Block 0 0</text></g><rect fill="none" height="1141.2886657748" rx="23.77672832" stroke="#808080" stroke-width="71.33018496" width="456.513183744" x="61.743408128" y="315.03508732315"/></g></svg>