<svg height="949.31276" width="726" xmlns="http://www.w3.org/2000/svg" xmlns:xlink="http://www.w3.org/1999/xlink"><g fill="#fff"><g stroke="#000"><path d="m17.2857142788 22.60266570524h691.4285714424v904.10738097046h-691.4285714424z" fill="#fff" stroke-width="71.42857143"/><text style="text-anchor:middle;dominant-baseline:middle;font-family:sans-serif;font-weight:bold;font-size:1;stroke-width:1.5" transform="matrix(47.61904762 0 0 47.61904762 362.99761904762 97.60266570674)">Matmul (Simple)</text><circle cx="310.619047618" cy="169.03599904151" fill="#f00" fill-opacity=".7" r="23.80952381" stroke-width="71.42857143"/><image stroke-width="1.5" transform="matrix(.03968238095 0 0 .03968238095 286.8096190461 145.2265704696)" xlink:href="https://raw.githubusercontent.com/minitorch/diagrams/main/robot.png"/><circle cx="363" cy="169.03599904151" fill="#ff7100" fill-opacity=".7" r="23.80952381" stroke-width="71.42857143"/><image stroke-width="1.5" transform="matrix(.03968238095 0 0 .03968238095 339.1905714281 145.2265704696)" xlink:href="https://raw.githubusercontent.com/minitorch/diagrams/main/robot.png"/><circle cx="415.380952382" cy="169.03599904151" fill="#ffe300" fill-opacity=".7" r="23.80952381" stroke-width="71.42857143"/><image stroke-width="1.5" transform="matrix(.03968238095 0 0 .03968238095 391.5715238101 145.2265704696)" xlink:href="https://raw.githubusercontent.com/minitorch/diagrams/main/robot.png"/><circle cx="310.619047618" cy="221.41695142351" fill="#af0" fill-opacity=".7" r="23.80952381" stroke-width="71.42857143"/><image stroke-width="1.5" transform="matrix(.03968238095 0 0 .03968238095 286.8096190461 197.6075228516)" xlink:href="https://raw.githubusercontent.com/minitorch/diagrams/main/robot.png"/><circle cx="363" cy="221.41695142351" fill="#39ff00" fill-opacity=".7" r="23.80952381" stroke-width="71.42857143"/><image stroke-width="1.5" transform="matrix(.03968238095 0 0 .03968238095 339.1905714281 197.6075228516)" xlink:href="https://raw.githubusercontent.com/minitorch/diagrams/main/robot.png"/><circle cx="415.380952382" cy="221.41695142351" fill="#00ff39" fill-opacity=".7" r="23.80952381" stroke-width="71.42857143"/><image stroke-width="1.5" transform="matrix(.03968238095 0 0 .03968238095 391.5715238101 197.6075228516)" xlink:href="https://raw.githubusercontent.com/minitorch/diagrams/main/robot.png"/><circle cx="310.619047618" cy="273.79790380551" fill="#0fa" fill-opacity=".7" r="23.80952381" stroke-width="71.42857143"/><image stroke-width="1.5" transform="matrix(.03968238095 0 0 .03968238095 286.8096190461 249.9884752336)" xlink:href="https://raw.githubusercontent.com/minitorch/diagrams/main/robot.png"/><circle cx="363" cy="273.79790380551" fill="#00e3ff" fill-opacity=".7" r="23.80952381" stroke-width="71.42857143"/><image stroke-width="1.5" transform="matrix(.03968238095 0 0 .03968238095 339.1905714281 249.9884752336)" xlink:href="https://raw.githubusercontent.com/minitorch/diagrams/main/robot.png"/><circle cx="415.380952382" cy="273.79790380551" fill="#0071ff" fill-opacity=".7" r="23.80952381" stroke-width="71.42857143"/><image stroke-width="1.5" transform="matrix(.03968238095 0 0 .03968238095 391.5715238101 249.9884752336)" xlink:href="https://raw.githubusercontent.com/minitorch/diagrams/main/robot.png"/><path d="m172.52380952 477.61295142863h47.61904762v47.61904762h-47.61904762z" stroke-width="35.714285715"/><path d="m172.52380952 525.23199904863h47.61904762v47.61904762h-47.61904762z" stroke-width="35.714285715"/><path d="m220.14285714 477.61295142863h47.61904762v47.61904762h-47.61904762z" stroke-width="35.714285715"/><path d="m220.14285714 525.23199904863h47.61904762v47.61904762h-47.61904762z" stroke-width="35.714285715"/><text style="text-anchor:middle;dominant-baseline:middle;font-family:sans-serif;font-weight:bold;font-size:.5;fill:#000;stroke-width:0" transform="matrix(47.61904762 0 0 47.61904762 220.14047618762 465.70818952363)">a</text><path d="m172.52380952 691.89866571863h47.61904762v47.61904762h-47.61904762z" stroke-width="35.714285715"/><path d="m172.52380952 739.51771333863h47.61904762v47.61904762h-47.61904762z" stroke-width="35.714285715"/><path d="m220.14285714 691.89866571863h47.61904762v47.61904762h-47.61904762z" stroke-width="35.714285715"/><path d="m220.14285714 739.51771333863h47.61904762v47.61904762h-47.61904762z" stroke-width="35.714285715"/><text style="text-anchor:middle;dominant-baseline:middle;font-family:sans-serif;font-weight:bold;font-size:.5;fill:#000;stroke-width:0" transform="matrix(47.61904762 0 0 47.61904762 220.14047618762 679.99390381363)">b</text><path d="m458.23809524 584.75580857363h47.61904762v47.61904762h-47.61904762z" stroke-width="35.714285715"/><path d="m458.23809524 632.37485619363h47.61904762v47.61904762h-47.61904762z" stroke-width="35.714285715"/><path d="m505.85714286 584.75580857363h47.61904762v47.61904762h-47.61904762z" stroke-width="35.714285715"/><path d="m505.85714286 632.37485619363h47.61904762v47.61904762h-47.61904762z" stroke-width="35.714285715"/><text style="text-anchor:middle;dominant-baseline:middle;font-family:sans-serif;font-weight:bold;font-size:.5;fill:#000;stroke-width:0" transform="matrix(47.61904762 0 0 47.61904762 505.85476190762 572.85104666863)">out</text><text style="text-anchor:middle;dominant-baseline:middle;font-family:sans-serif;font-weight:bold;font-size:.5;fill:#000;stroke-width:0" transform="matrix(47.61904762 0 0 47.61904762 362.99761904762 429.98914190387)">Block 0 0</text></g><rect fill="none" height="457.14857143771" rx="23.80952381" stroke="#808080" stroke-width="71.42857143" width="571.42857144" x="77.28571428" y="368.08390380739"/></g></svg>