<svg height="937.21276" width="580" xmlns="http://www.w3.org/2000/svg" xmlns:xlink="http://www.w3.org/1999/xlink"><g fill="#fff"><g stroke="#000"><path d="m13.80952383488 22.28383452747h552.38095233024v891.3541173916h-552.38095233024z" fill="#fff" stroke-width="71.33018496"/><text style="text-anchor:middle;dominant-baseline:middle;font-family:sans-serif;font-weight:bold;font-size:1;stroke-width:1.5" transform="matrix(47.55345664 0 0 47.55345664 289.99762232717 97.18052873547)">Sum (Simple)</text><circle cx="106.919191936" cy="168.51546904113" fill="#f00" fill-opacity=".7" r="23.77672832" stroke-width="71.33018496"/><image stroke-width="1.5" transform="matrix(.03962772202 0 0 .03962772202 83.14255872291 144.73883582805)" xlink:href="https://raw.githubusercontent.com/minitorch/diagrams/main/robot.png"/><circle cx="159.22799424" cy="168.51546904113" fill="#ff7100" fill-opacity=".7" r="23.77672832" stroke-width="71.33018496"/><image stroke-width="1.5" transform="matrix(.03962772202 0 0 .03962772202 135.45136102691 144.73883582805)" xlink:href="https://raw.githubusercontent.com/minitorch/diagrams/main/robot.png"/><circle cx="211.536796544" cy="168.51546904113" fill="#ffe300" fill-opacity=".7" r="23.77672832" stroke-width="71.33018496"/><image stroke-width="1.5" transform="matrix(.03962772202 0 0 .03962772202 187.76016333091 144.73883582805)" xlink:href="https://raw.githubusercontent.com/minitorch/diagrams/main/robot.png"/><circle cx="263.845598848" cy="168.51546904113" fill="#af0" fill-opacity=".7" r="23.77672832" stroke-width="71.33018496"/><image stroke-width="1.5" transform="matrix(.03962772202 0 0 .03962772202 240.06896563491 144.73883582805)" xlink:href="https://raw.githubusercontent.com/minitorch/diagrams/main/robot.png"/><circle cx="316.154401152" cy="168.51546904113" fill="#39ff00" fill-opacity=".7" r="23.77672832" stroke-width="71.33018496"/><image stroke-width="1.5" transform="matrix(.03962772202 0 0 .03962772202 292.37776793891 144.73883582805)" xlink:href="https://raw.githubusercontent.com/minitorch/diagrams/main/robot.png"/><circle cx="368.463203456" cy="168.51546904113" fill="#00ff39" fill-opacity=".7" r="23.77672832" stroke-width="71.33018496"/><image stroke-width="1.5" transform="matrix(.03962772202 0 0 .03962772202 344.68657024291 144.73883582805)" xlink:href="https://raw.githubusercontent.com/minitorch/diagrams/main/robot.png"/><circle cx="420.77200576" cy="168.51546904113" fill="#0fa" fill-opacity=".7" r="23.77672832" stroke-width="71.33018496"/><image stroke-width="1.5" transform="matrix(.03962772202 0 0 .03962772202 396.99537254691 144.73883582805)" xlink:href="https://raw.githubusercontent.com/minitorch/diagrams/main/robot.png"/><circle cx="473.080808064" cy="168.51546904113" fill="#00e3ff" fill-opacity=".7" r="23.77672832" stroke-width="71.33018496"/><image stroke-width="1.5" transform="matrix(.03962772202 0 0 .03962772202 449.30417485091 144.73883582805)" xlink:href="https://raw.githubusercontent.com/minitorch/diagrams/main/robot.png"/><path d="m147.33963008 383.4626092549h47.55345664v47.55345664h-47.55345664z" stroke-width="35.66509248"/><path d="m147.33963008 431.0160658949h47.55345664v47.55345664h-47.55345664z" stroke-width="35.66509248"/><path d="m147.33963008 478.5695225349h47.55345664v47.55345664h-47.55345664z" stroke-width="35.66509248"/><path d="m147.33963008 526.1229791749h47.55345664v47.55345664h-47.55345664z" stroke-width="35.66509248"/><path d="m147.33963008 573.6764358149h47.55345664v47.55345664h-47.55345664z" stroke-width="35.66509248"/><path d="m147.33963008 621.2298924549h47.55345664v47.55345664h-47.55345664z" stroke-width="35.66509248"/><path d="m147.33963008 668.7833490949h47.55345664v47.55345664h-47.55345664z" stroke-width="35.66509248"/><path d="m147.33963008 716.3368057349h47.55345664v47.55345664h-47.55345664z" stroke-width="35.66509248"/><text style="text-anchor:middle;dominant-baseline:middle;font-family:sans-serif;font-weight:bold;font-size:.5;fill:#000;stroke-width:0" transform="matrix(47.55345664 0 0 47.55345664 171.11398072717 371.5742450949)">a</text><path d="m385.10691328 549.8997074949h47.55345664v47.55345664h-47.55345664z" stroke-width="35.66509248"/><text style="text-anchor:middle;dominant-baseline:middle;font-family:sans-serif;font-weight:bold;font-size:.5;fill:#000;stroke-width:0" transform="matrix(47.55345664 0 0 47.55345664 408.88126392717 538.0113433349)">out</text><text style="text-anchor:middle;dominant-baseline:middle;font-family:sans-serif;font-weight:bold;font-size:.5;fill:#000;stroke-width:0" transform="matrix(47.55345664 0 0 47.55345664 289.99762232717 335.90439726924)">Block 0 0</text></g><rect fill="none" height="542.1151121108" rx="23.77672832" stroke="#808080" stroke-width="71.33018496" width="456.513183744" x="61.743408128" y="266.95140960667"/></g></svg>