<svg height="1445.41276" width="1161" xmlns="http://www.w3.org/2000/svg" xmlns:xlink="http://www.w3.org/1999/xlink"><g fill="#fff"><g stroke="#000"><path d="m27.642857184 34.39679415627h1105.714285632v1375.87252609301h-1105.714285632z" fill="#fff" stroke-width="71.3916765"/><text style="text-anchor:middle;dominant-baseline:middle;font-family:sans-serif;font-weight:bold;font-size:1;stroke-width:1.5" transform="matrix(47.594451 0 0 47.594451 580.49762027745 109.35805448127)">Sum (Full)</text><circle cx="397.26136365" cy="180.75449042637" fill="#f00" fill-opacity=".7" r="23.7972255" stroke-width="71.3916765"/><image stroke-width="1.5" transform="matrix(.03966188385 0 0 .03966188385 373.4642333389 156.95736011527)" xlink:href="https://raw.githubusercontent.com/minitorch/diagrams/main/robot.png"/><circle cx="449.61525975" cy="180.75449042637" fill="#ff7100" fill-opacity=".7" r="23.7972255" stroke-width="71.3916765"/><image stroke-width="1.5" transform="matrix(.03966188385 0 0 .03966188385 425.8181294389 156.95736011527)" xlink:href="https://raw.githubusercontent.com/minitorch/diagrams/main/robot.png"/><circle cx="501.96915585" cy="180.75449042637" fill="#ffe300" fill-opacity=".7" r="23.7972255" stroke-width="71.3916765"/><image stroke-width="1.5" transform="matrix(.03966188385 0 0 .03966188385 478.1720255389 156.95736011527)" xlink:href="https://raw.githubusercontent.com/minitorch/diagrams/main/robot.png"/><circle cx="554.32305195" cy="180.75449042637" fill="#af0" fill-opacity=".7" r="23.7972255" stroke-width="71.3916765"/><image stroke-width="1.5" transform="matrix(.03966188385 0 0 .03966188385 530.5259216389 156.95736011527)" xlink:href="https://raw.githubusercontent.com/minitorch/diagrams/main/robot.png"/><circle cx="606.67694805" cy="180.75449042637" fill="#39ff00" fill-opacity=".7" r="23.7972255" stroke-width="71.3916765"/><image stroke-width="1.5" transform="matrix(.03966188385 0 0 .03966188385 582.8798177389 156.95736011527)" xlink:href="https://raw.githubusercontent.com/minitorch/diagrams/main/robot.png"/><circle cx="659.03084415" cy="180.75449042637" fill="#00ff39" fill-opacity=".7" r="23.7972255" stroke-width="71.3916765"/><image stroke-width="1.5" transform="matrix(.03966188385 0 0 .03966188385 635.2337138389 156.95736011527)" xlink:href="https://raw.githubusercontent.com/minitorch/diagrams/main/robot.png"/><circle cx="711.38474025" cy="180.75449042637" fill="#0fa" fill-opacity=".7" r="23.7972255" stroke-width="71.3916765"/><image stroke-width="1.5" transform="matrix(.03966188385 0 0 .03966188385 687.5876099389 156.95736011527)" xlink:href="https://raw.githubusercontent.com/minitorch/diagrams/main/robot.png"/><circle cx="763.73863635" cy="180.75449042637" fill="#00e3ff" fill-opacity=".7" r="23.7972255" stroke-width="71.3916765"/><image stroke-width="1.5" transform="matrix(.03966188385 0 0 .03966188385 739.9415060389 156.95736011527)" xlink:href="https://raw.githubusercontent.com/minitorch/diagrams/main/robot.png"/><path d="m186.41794572 449.19271502269h47.594451v47.594451h-47.594451z" stroke-width="35.69583825"/><path d="m186.41794572 496.78716602269h47.594451v47.594451h-47.594451z" stroke-width="35.69583825"/><path d="m186.41794572 544.38161702269h47.594451v47.594451h-47.594451z" stroke-width="35.69583825"/><path d="m186.41794572 591.97606802269h47.594451v47.594451h-47.594451z" stroke-width="35.69583825"/><path d="m186.41794572 639.57051902269h47.594451v47.594451h-47.594451z" stroke-width="35.69583825"/><path d="m186.41794572 687.16497002269h47.594451v47.594451h-47.594451z" stroke-width="35.69583825"/><path d="m186.41794572 734.75942102269h47.594451v47.594451h-47.594451z" stroke-width="35.69583825"/><path d="m186.41794572 782.35387202269h47.594451v47.594451h-47.594451z" stroke-width="35.69583825"/><path d="m186.41794572 829.94832302269h47.594451v47.594451h-47.594451z" stroke-width="35.69583825"/><path d="m186.41794572 877.54277402269h47.594451v47.594451h-47.594451z" stroke-width="35.69583825"/><path d="m186.41794572 925.13722502269h47.594451v47.594451h-47.594451z" stroke-width="35.69583825"/><path d="m186.41794572 972.73167602269h47.594451v47.594451h-47.594451z" stroke-width="35.69583825"/><path d="m186.41794572 1020.32612702269h47.594451v47.594451h-47.594451z" stroke-width="35.69583825"/><path d="m186.41794572 1067.92057802269h47.594451v47.594451h-47.594451z" stroke-width="35.69583825"/><path d="m186.41794572 1115.51502902269h47.594451v47.594451h-47.594451z" stroke-width="35.69583825"/><text style="text-anchor:middle;dominant-baseline:middle;font-family:sans-serif;font-weight:bold;font-size:.5;fill:#000;stroke-width:0" transform="matrix(47.594451 0 0 47.594451 210.21279149745 437.29410227269)">a</text><path d="m424.39020072 758.55664652269h47.594451v47.594451h-47.594451z" stroke-width="35.69583825"/><path d="m424.39020072 806.15109752269h47.594451v47.594451h-47.594451z" stroke-width="35.69583825"/><text style="text-anchor:middle;dominant-baseline:middle;font-family:sans-serif;font-weight:bold;font-size:.5;fill:#000;stroke-width:0" transform="matrix(47.594451 0 0 47.594451 448.18504649745 746.65803377269)">out</text><text style="text-anchor:middle;dominant-baseline:middle;font-family:sans-serif;font-weight:bold;font-size:.5;fill:#000;stroke-width:0" transform="matrix(47.594451 0 0 47.594451 329.19891899745 401.59350457759)">Block 0 0</text></g><rect fill="none" height="942.37584113412" rx="23.7972255" stroke="#808080" stroke-width="71.3916765" width="456.9067296" x="100.74793392" y="299.26495898308"/><path d="m689.01534828 449.19271502269h47.594451v47.594451h-47.594451z" stroke="#000" stroke-width="35.69583825"/><path d="m689.01534828 496.78716602269h47.594451v47.594451h-47.594451z" stroke="#000" stroke-width="35.69583825"/><path d="m689.01534828 544.38161702269h47.594451v47.594451h-47.594451z" stroke="#000" stroke-width="35.69583825"/><path d="m689.01534828 591.97606802269h47.594451v47.594451h-47.594451z" stroke="#000" stroke-width="35.69583825"/><path d="m689.01534828 639.57051902269h47.594451v47.594451h-47.594451z" stroke="#000" stroke-width="35.69583825"/><path d="m689.01534828 687.16497002269h47.594451v47.594451h-47.594451z" stroke="#000" stroke-width="35.69583825"/><path d="m689.01534828 734.75942102269h47.594451v47.594451h-47.594451z" stroke="#000" stroke-width="35.69583825"/><path d="m689.01534828 782.35387202269h47.594451v47.594451h-47.594451z" stroke="#000" stroke-width="35.69583825"/><path d="m689.01534828 829.94832302269h47.594451v47.594451h-47.594451z" stroke="#000" stroke-width="35.69583825"/><path d="m689.01534828 877.54277402269h47.594451v47.594451h-47.594451z" stroke="#000" stroke-width="35.69583825"/><path d="m689.01534828 925.13722502269h47.594451v47.594451h-47.594451z" stroke="#000" stroke-width="35.69583825"/><path d="m689.01534828 972.73167602269h47.594451v47.594451h-47.594451z" stroke="#000" stroke-width="35.69583825"/><path d="m689.01534828 1020.32612702269h47.594451v47.594451h-47.594451z" stroke="#000" stroke-width="35.69583825"/><path d="m689.01534828 1067.92057802269h47.594451v47.594451h-47.594451z" stroke="#000" stroke-width="35.69583825"/><path d="m689.01534828 1115.51502902269h47.594451v47.594451h-47.594451z" stroke="#000" stroke-width="35.69583825"/><text style="text-anchor:middle;dominant-baseline:middle;font-family:sans-serif;font-weight:bold;font-size:.5;fill:#000;stroke:#000;stroke-width:0" transform="matrix(47.594451 0 0 47.594451 712.81019405745 437.29410227269)">a</text><path d="m926.98760328 758.55664652269h47.594451v47.594451h-47.594451z" stroke="#000" stroke-width="35.69583825"/><path d="m926.98760328 806.15109752269h47.594451v47.594451h-47.594451z" stroke="#000" stroke-width="35.69583825"/><text style="text-anchor:middle;dominant-baseline:middle;font-family:sans-serif;font-weight:bold;font-size:.5;fill:#000;stroke:#000;stroke-width:0" transform="matrix(47.594451 0 0 47.594451 950.78244905745 746.65803377269)">out</text><text style="text-anchor:middle;dominant-baseline:middle;font-family:sans-serif;font-weight:bold;font-size:.5;fill:#000;stroke:#000;stroke-width:0" transform="matrix(47.594451 0 0 47.594451 831.79632155745 401.59350457759)">Block 1 0</text><rect fill="none" height="942.37584113412" rx="23.7972255" stroke="#808080" stroke-width="71.3916765" width="456.9067296" x="603.34533648" y="299.26495898308"/></g></svg>