<svg height="1312.32002" width="2323" xmlns="http://www.w3.org/2000/svg" xmlns:xlink="http://www.w3.org/1999/xlink"><g fill="#fff"><g stroke="#000"><path d="m55.31428569216 31.24572427322h2212.57142861568v1249.82857145357h-2212.57142861568z" fill="#fff" stroke-width="71.42857143"/><text style="text-anchor:middle;dominant-baseline:middle;font-family:sans-serif;font-weight:bold;font-size:1;stroke-width:1.5" transform="matrix(47.61904762 0 0 47.61904762 1161.59761904762 106.24572427472)">Blocks 2D</text><circle cx="1109.219047618" cy="177.67905760948" fill="#f00" fill-opacity=".7" r="23.80952381" stroke-width="71.42857143"/><image stroke-width="1.5" transform="matrix(.03968238095 0 0 .03968238095 1085.4096190461 153.86962903757)" xlink:href="https://raw.githubusercontent.com/minitorch/diagrams/main/robot.png"/><circle cx="1161.6" cy="177.67905760948" fill="#ff7100" fill-opacity=".7" r="23.80952381" stroke-width="71.42857143"/><image stroke-width="1.5" transform="matrix(.03968238095 0 0 .03968238095 1137.7905714281 153.86962903757)" xlink:href="https://raw.githubusercontent.com/minitorch/diagrams/main/robot.png"/><circle cx="1213.980952382" cy="177.67905760948" fill="#ffe300" fill-opacity=".7" r="23.80952381" stroke-width="71.42857143"/><image stroke-width="1.5" transform="matrix(.03968238095 0 0 .03968238095 1190.1715238101 153.86962903757)" xlink:href="https://raw.githubusercontent.com/minitorch/diagrams/main/robot.png"/><circle cx="1109.219047618" cy="230.06000999148" fill="#af0" fill-opacity=".7" r="23.80952381" stroke-width="71.42857143"/><image stroke-width="1.5" transform="matrix(.03968238095 0 0 .03968238095 1085.4096190461 206.25058141957)" xlink:href="https://raw.githubusercontent.com/minitorch/diagrams/main/robot.png"/><circle cx="1161.6" cy="230.06000999148" fill="#39ff00" fill-opacity=".7" r="23.80952381" stroke-width="71.42857143"/><image stroke-width="1.5" transform="matrix(.03968238095 0 0 .03968238095 1137.7905714281 206.25058141957)" xlink:href="https://raw.githubusercontent.com/minitorch/diagrams/main/robot.png"/><circle cx="1213.980952382" cy="230.06000999148" fill="#00ff39" fill-opacity=".7" r="23.80952381" stroke-width="71.42857143"/><image stroke-width="1.5" transform="matrix(.03968238095 0 0 .03968238095 1190.1715238101 206.25058141957)" xlink:href="https://raw.githubusercontent.com/minitorch/diagrams/main/robot.png"/><circle cx="1109.219047618" cy="282.44096237348" fill="#0fa" fill-opacity=".7" r="23.80952381" stroke-width="71.42857143"/><image stroke-width="1.5" transform="matrix(.03968238095 0 0 .03968238095 1085.4096190461 258.63153380157)" xlink:href="https://raw.githubusercontent.com/minitorch/diagrams/main/robot.png"/><circle cx="1161.6" cy="282.44096237348" fill="#00e3ff" fill-opacity=".7" r="23.80952381" stroke-width="71.42857143"/><image stroke-width="1.5" transform="matrix(.03968238095 0 0 .03968238095 1137.7905714281 258.63153380157)" xlink:href="https://raw.githubusercontent.com/minitorch/diagrams/main/robot.png"/><circle cx="1213.980952382" cy="282.44096237348" fill="#0071ff" fill-opacity=".7" r="23.80952381" stroke-width="71.42857143"/><image stroke-width="1.5" transform="matrix(.03968238095 0 0 .03968238095 1190.1715238101 258.63153380157)" xlink:href="https://raw.githubusercontent.com/minitorch/diagrams/main/robot.png"/><path d="m325.4095237928 474.8274385678h47.61904762v47.61904762h-47.61904762z" stroke-width="35.714285715"/><path d="m325.4095237928 522.4464861878h47.61904762v47.61904762h-47.61904762z" stroke-width="35.714285715"/><path d="m325.4095237928 570.0655338078h47.61904762v47.61904762h-47.61904762z" stroke-width="35.714285715"/><path d="m325.4095237928 617.6845814278h47.61904762v47.61904762h-47.61904762z" stroke-width="35.714285715"/><path d="m325.4095237928 665.3036290478h47.61904762v47.61904762h-47.61904762z" stroke-width="35.714285715"/><path d="m373.0285714128 474.8274385678h47.61904762v47.61904762h-47.61904762z" stroke-width="35.714285715"/><path d="m373.0285714128 522.4464861878h47.61904762v47.61904762h-47.61904762z" stroke-width="35.714285715"/><path d="m373.0285714128 570.0655338078h47.61904762v47.61904762h-47.61904762z" stroke-width="35.714285715"/><path d="m373.0285714128 617.6845814278h47.61904762v47.61904762h-47.61904762z" stroke-width="35.714285715"/><path d="m373.0285714128 665.3036290478h47.61904762v47.61904762h-47.61904762z" stroke-width="35.714285715"/><path d="m420.6476190328 474.8274385678h47.61904762v47.61904762h-47.61904762z" stroke-width="35.714285715"/><path d="m420.6476190328 522.4464861878h47.61904762v47.61904762h-47.61904762z" stroke-width="35.714285715"/><path d="m420.6476190328 570.0655338078h47.61904762v47.61904762h-47.61904762z" stroke-width="35.714285715"/><path d="m420.6476190328 617.6845814278h47.61904762v47.61904762h-47.61904762z" stroke-width="35.714285715"/><path d="m420.6476190328 665.3036290478h47.61904762v47.61904762h-47.61904762z" stroke-width="35.714285715"/><path d="m468.2666666528 474.8274385678h47.61904762v47.61904762h-47.61904762z" stroke-width="35.714285715"/><path d="m468.2666666528 522.4464861878h47.61904762v47.61904762h-47.61904762z" stroke-width="35.714285715"/><path d="m468.2666666528 570.0655338078h47.61904762v47.61904762h-47.61904762z" stroke-width="35.714285715"/><path d="m468.2666666528 617.6845814278h47.61904762v47.61904762h-47.61904762z" stroke-width="35.714285715"/><path d="m468.2666666528 665.3036290478h47.61904762v47.61904762h-47.61904762z" stroke-width="35.714285715"/><path d="m515.8857142728 474.8274385678h47.61904762v47.61904762h-47.61904762z" stroke-width="35.714285715"/><path d="m515.8857142728 522.4464861878h47.61904762v47.61904762h-47.61904762z" stroke-width="35.714285715"/><path d="m515.8857142728 570.0655338078h47.61904762v47.61904762h-47.61904762z" stroke-width="35.714285715"/><path d="m515.8857142728 617.6845814278h47.61904762v47.61904762h-47.61904762z" stroke-width="35.714285715"/><path d="m515.8857142728 665.3036290478h47.61904762v47.61904762h-47.61904762z" stroke-width="35.714285715"/><text style="text-anchor:middle;dominant-baseline:middle;font-family:sans-serif;font-weight:bold;font-size:.5;fill:#000;stroke-width:0" transform="matrix(47.61904762 0 0 47.61904762 444.45476189042 462.9226766628)">a</text><path d="m753.9809523728 474.8274385678h47.61904762v47.61904762h-47.61904762z" stroke-width="35.714285715"/><path d="m753.9809523728 522.4464861878h47.61904762v47.61904762h-47.61904762z" stroke-width="35.714285715"/><path d="m753.9809523728 570.0655338078h47.61904762v47.61904762h-47.61904762z" stroke-width="35.714285715"/><path d="m753.9809523728 617.6845814278h47.61904762v47.61904762h-47.61904762z" stroke-width="35.714285715"/><path d="m753.9809523728 665.3036290478h47.61904762v47.61904762h-47.61904762z" stroke-width="35.714285715"/><path d="m801.5999999928 474.8274385678h47.61904762v47.61904762h-47.61904762z" stroke-width="35.714285715"/><path d="m801.5999999928 522.4464861878h47.61904762v47.61904762h-47.61904762z" stroke-width="35.714285715"/><path d="m801.5999999928 570.0655338078h47.61904762v47.61904762h-47.61904762z" stroke-width="35.714285715"/><path d="m801.5999999928 617.6845814278h47.61904762v47.61904762h-47.61904762z" stroke-width="35.714285715"/><path d="m801.5999999928 665.3036290478h47.61904762v47.61904762h-47.61904762z" stroke-width="35.714285715"/><path d="m849.2190476128 474.8274385678h47.61904762v47.61904762h-47.61904762z" stroke-width="35.714285715"/><path d="m849.2190476128 522.4464861878h47.61904762v47.61904762h-47.61904762z" stroke-width="35.714285715"/><path d="m849.2190476128 570.0655338078h47.61904762v47.61904762h-47.61904762z" stroke-width="35.714285715"/><path d="m849.2190476128 617.6845814278h47.61904762v47.61904762h-47.61904762z" stroke-width="35.714285715"/><path d="m849.2190476128 665.3036290478h47.61904762v47.61904762h-47.61904762z" stroke-width="35.714285715"/><path d="m896.8380952328 474.8274385678h47.61904762v47.61904762h-47.61904762z" stroke-width="35.714285715"/><path d="m896.8380952328 522.4464861878h47.61904762v47.61904762h-47.61904762z" stroke-width="35.714285715"/><path d="m896.8380952328 570.0655338078h47.61904762v47.61904762h-47.61904762z" stroke-width="35.714285715"/><path d="m896.8380952328 617.6845814278h47.61904762v47.61904762h-47.61904762z" stroke-width="35.714285715"/><path d="m896.8380952328 665.3036290478h47.61904762v47.61904762h-47.61904762z" stroke-width="35.714285715"/><path d="m944.4571428528 474.8274385678h47.61904762v47.61904762h-47.61904762z" stroke-width="35.714285715"/><path d="m944.4571428528 522.4464861878h47.61904762v47.61904762h-47.61904762z" stroke-width="35.714285715"/><path d="m944.4571428528 570.0655338078h47.61904762v47.61904762h-47.61904762z" stroke-width="35.714285715"/><path d="m944.4571428528 617.6845814278h47.61904762v47.61904762h-47.61904762z" stroke-width="35.714285715"/><path d="m944.4571428528 665.3036290478h47.61904762v47.61904762h-47.61904762z" stroke-width="35.714285715"/><text style="text-anchor:middle;dominant-baseline:middle;font-family:sans-serif;font-weight:bold;font-size:.5;fill:#000;stroke-width:0" transform="matrix(47.61904762 0 0 47.61904762 873.02619047042 462.9226766628)">out</text><text style="text-anchor:middle;dominant-baseline:middle;font-family:sans-serif;font-weight:bold;font-size:.5;fill:#000;stroke-width:0" transform="matrix(47.61904762 0 0 47.61904762 658.74047618042 427.20362904304)">Block 0 0</text></g><rect fill="none" height="371.43428572171" rx="23.80952381" stroke="#808080" stroke-width="71.42857143" width="914.285714304" x="201.5999999808" y="372.44124808956"/><path d="m1331.1238095272 474.8274385678h47.61904762v47.61904762h-47.61904762z" stroke="#000" stroke-width="35.714285715"/><path d="m1331.1238095272 522.4464861878h47.61904762v47.61904762h-47.61904762z" stroke="#000" stroke-width="35.714285715"/><path d="m1331.1238095272 570.0655338078h47.61904762v47.61904762h-47.61904762z" stroke="#000" stroke-width="35.714285715"/><path d="m1331.1238095272 617.6845814278h47.61904762v47.61904762h-47.61904762z" stroke="#000" stroke-width="35.714285715"/><path d="m1331.1238095272 665.3036290478h47.61904762v47.61904762h-47.61904762z" stroke="#000" stroke-width="35.714285715"/><path d="m1378.7428571472 474.8274385678h47.61904762v47.61904762h-47.61904762z" stroke="#000" stroke-width="35.714285715"/><path d="m1378.7428571472 522.4464861878h47.61904762v47.61904762h-47.61904762z" stroke="#000" stroke-width="35.714285715"/><path d="m1378.7428571472 570.0655338078h47.61904762v47.61904762h-47.61904762z" stroke="#000" stroke-width="35.714285715"/><path d="m1378.7428571472 617.6845814278h47.61904762v47.61904762h-47.61904762z" stroke="#000" stroke-width="35.714285715"/><path d="m1378.7428571472 665.3036290478h47.61904762v47.61904762h-47.61904762z" stroke="#000" stroke-width="35.714285715"/><path d="m1426.3619047672 474.8274385678h47.61904762v47.61904762h-47.61904762z" stroke="#000" stroke-width="35.714285715"/><path d="m1426.3619047672 522.4464861878h47.61904762v47.61904762h-47.61904762z" stroke="#000" stroke-width="35.714285715"/><path d="m1426.3619047672 570.0655338078h47.61904762v47.61904762h-47.61904762z" stroke="#000" stroke-width="35.714285715"/><path d="m1426.3619047672 617.6845814278h47.61904762v47.61904762h-47.61904762z" stroke="#000" stroke-width="35.714285715"/><path d="m1426.3619047672 665.3036290478h47.61904762v47.61904762h-47.61904762z" stroke="#000" stroke-width="35.714285715"/><path d="m1473.9809523872 474.8274385678h47.61904762v47.61904762h-47.61904762z" stroke="#000" stroke-width="35.714285715"/><path d="m1473.9809523872 522.4464861878h47.61904762v47.61904762h-47.61904762z" stroke="#000" stroke-width="35.714285715"/><path d="m1473.9809523872 570.0655338078h47.61904762v47.61904762h-47.61904762z" stroke="#000" stroke-width="35.714285715"/><path d="m1473.9809523872 617.6845814278h47.61904762v47.61904762h-47.61904762z" stroke="#000" stroke-width="35.714285715"/><path d="m1473.9809523872 665.3036290478h47.61904762v47.61904762h-47.61904762z" stroke="#000" stroke-width="35.714285715"/><path d="m1521.6000000072 474.8274385678h47.61904762v47.61904762h-47.61904762z" stroke="#000" stroke-width="35.714285715"/><path d="m1521.6000000072 522.4464861878h47.61904762v47.61904762h-47.61904762z" stroke="#000" stroke-width="35.714285715"/><path d="m1521.6000000072 570.0655338078h47.61904762v47.61904762h-47.61904762z" stroke="#000" stroke-width="35.714285715"/><path d="m1521.6000000072 617.6845814278h47.61904762v47.61904762h-47.61904762z" stroke="#000" stroke-width="35.714285715"/><path d="m1521.6000000072 665.3036290478h47.61904762v47.61904762h-47.61904762z" stroke="#000" stroke-width="35.714285715"/><text style="text-anchor:middle;dominant-baseline:middle;font-family:sans-serif;font-weight:bold;font-size:.5;fill:#000;stroke:#000;stroke-width:0" transform="matrix(47.61904762 0 0 47.61904762 1450.16904762482 462.9226766628)">a</text><path d="m1759.6952381072 474.8274385678h47.61904762v47.61904762h-47.61904762z" stroke="#000" stroke-width="35.714285715"/><path d="m1759.6952381072 522.4464861878h47.61904762v47.61904762h-47.61904762z" stroke="#000" stroke-width="35.714285715"/><path d="m1759.6952381072 570.0655338078h47.61904762v47.61904762h-47.61904762z" stroke="#000" stroke-width="35.714285715"/><path d="m1759.6952381072 617.6845814278h47.61904762v47.61904762h-47.61904762z" stroke="#000" stroke-width="35.714285715"/><path d="m1759.6952381072 665.3036290478h47.61904762v47.61904762h-47.61904762z" stroke="#000" stroke-width="35.714285715"/><path d="m1807.3142857272 474.8274385678h47.61904762v47.61904762h-47.61904762z" stroke="#000" stroke-width="35.714285715"/><path d="m1807.3142857272 522.4464861878h47.61904762v47.61904762h-47.61904762z" stroke="#000" stroke-width="35.714285715"/><path d="m1807.3142857272 570.0655338078h47.61904762v47.61904762h-47.61904762z" stroke="#000" stroke-width="35.714285715"/><path d="m1807.3142857272 617.6845814278h47.61904762v47.61904762h-47.61904762z" stroke="#000" stroke-width="35.714285715"/><path d="m1807.3142857272 665.3036290478h47.61904762v47.61904762h-47.61904762z" stroke="#000" stroke-width="35.714285715"/><path d="m1854.9333333472 474.8274385678h47.61904762v47.61904762h-47.61904762z" stroke="#000" stroke-width="35.714285715"/><path d="m1854.9333333472 522.4464861878h47.61904762v47.61904762h-47.61904762z" stroke="#000" stroke-width="35.714285715"/><path d="m1854.9333333472 570.0655338078h47.61904762v47.61904762h-47.61904762z" stroke="#000" stroke-width="35.714285715"/><path d="m1854.9333333472 617.6845814278h47.61904762v47.61904762h-47.61904762z" stroke="#000" stroke-width="35.714285715"/><path d="m1854.9333333472 665.3036290478h47.61904762v47.61904762h-47.61904762z" stroke="#000" stroke-width="35.714285715"/><path d="m1902.5523809672 474.8274385678h47.61904762v47.61904762h-47.61904762z" stroke="#000" stroke-width="35.714285715"/><path d="m1902.5523809672 522.4464861878h47.61904762v47.61904762h-47.61904762z" stroke="#000" stroke-width="35.714285715"/><path d="m1902.5523809672 570.0655338078h47.61904762v47.61904762h-47.61904762z" stroke="#000" stroke-width="35.714285715"/><path d="m1902.5523809672 617.6845814278h47.61904762v47.61904762h-47.61904762z" stroke="#000" stroke-width="35.714285715"/><path d="m1902.5523809672 665.3036290478h47.61904762v47.61904762h-47.61904762z" stroke="#000" stroke-width="35.714285715"/><path d="m1950.1714285872 474.8274385678h47.61904762v47.61904762h-47.61904762z" stroke="#000" stroke-width="35.714285715"/><path d="m1950.1714285872 522.4464861878h47.61904762v47.61904762h-47.61904762z" stroke="#000" stroke-width="35.714285715"/><path d="m1950.1714285872 570.0655338078h47.61904762v47.61904762h-47.61904762z" stroke="#000" stroke-width="35.714285715"/><path d="m1950.1714285872 617.6845814278h47.61904762v47.61904762h-47.61904762z" stroke="#000" stroke-width="35.714285715"/><path d="m1950.1714285872 665.3036290478h47.61904762v47.61904762h-47.61904762z" stroke="#000" stroke-width="35.714285715"/><text style="text-anchor:middle;dominant-baseline:middle;font-family:sans-serif;font-weight:bold;font-size:.5;fill:#000;stroke:#000;stroke-width:0" transform="matrix(47.61904762 0 0 47.61904762 1878.74047620482 462.9226766628)">out</text><text style="text-anchor:middle;dominant-baseline:middle;font-family:sans-serif;font-weight:bold;font-size:.5;fill:#000;stroke:#000;stroke-width:0" transform="matrix(47.61904762 0 0 47.61904762 1664.45476191482 427.20362904304)">Block 1 0</text><rect fill="none" height="371.43428572171" rx="23.80952381" stroke="#808080" stroke-width="71.42857143" width="914.285714304" x="1207.3142857152" y="372.44124808956"/><path d="m325.4095237928 883.40515286169h47.61904762v47.61904762h-47.61904762z" stroke="#000" stroke-width="35.714285715"/><path d="m325.4095237928 931.02420048169h47.61904762v47.61904762h-47.61904762z" stroke="#000" stroke-width="35.714285715"/><path d="m325.4095237928 978.64324810169h47.61904762v47.61904762h-47.61904762z" stroke="#000" stroke-width="35.714285715"/><path d="m325.4095237928 1026.26229572169h47.61904762v47.61904762h-47.61904762z" stroke="#000" stroke-width="35.714285715"/><path d="m325.4095237928 1073.88134334169h47.61904762v47.61904762h-47.61904762z" stroke="#000" stroke-width="35.714285715"/><path d="m373.0285714128 883.40515286169h47.61904762v47.61904762h-47.61904762z" stroke="#000" stroke-width="35.714285715"/><path d="m373.0285714128 931.02420048169h47.61904762v47.61904762h-47.61904762z" stroke="#000" stroke-width="35.714285715"/><path d="m373.0285714128 978.64324810169h47.61904762v47.61904762h-47.61904762z" stroke="#000" stroke-width="35.714285715"/><path d="m373.0285714128 1026.26229572169h47.61904762v47.61904762h-47.61904762z" stroke="#000" stroke-width="35.714285715"/><path d="m373.0285714128 1073.88134334169h47.61904762v47.61904762h-47.61904762z" stroke="#000" stroke-width="35.714285715"/><path d="m420.6476190328 883.40515286169h47.61904762v47.61904762h-47.61904762z" stroke="#000" stroke-width="35.714285715"/><path d="m420.6476190328 931.02420048169h47.61904762v47.61904762h-47.61904762z" stroke="#000" stroke-width="35.714285715"/><path d="m420.6476190328 978.64324810169h47.61904762v47.61904762h-47.61904762z" stroke="#000" stroke-width="35.714285715"/><path d="m420.6476190328 1026.26229572169h47.61904762v47.61904762h-47.61904762z" stroke="#000" stroke-width="35.714285715"/><path d="m420.6476190328 1073.88134334169h47.61904762v47.61904762h-47.61904762z" stroke="#000" stroke-width="35.714285715"/><path d="m468.2666666528 883.40515286169h47.61904762v47.61904762h-47.61904762z" stroke="#000" stroke-width="35.714285715"/><path d="m468.2666666528 931.02420048169h47.61904762v47.61904762h-47.61904762z" stroke="#000" stroke-width="35.714285715"/><path d="m468.2666666528 978.64324810169h47.61904762v47.61904762h-47.61904762z" stroke="#000" stroke-width="35.714285715"/><path d="m468.2666666528 1026.26229572169h47.61904762v47.61904762h-47.61904762z" stroke="#000" stroke-width="35.714285715"/><path d="m468.2666666528 1073.88134334169h47.61904762v47.61904762h-47.61904762z" stroke="#000" stroke-width="35.714285715"/><path d="m515.8857142728 883.40515286169h47.61904762v47.61904762h-47.61904762z" stroke="#000" stroke-width="35.714285715"/><path d="m515.8857142728 931.02420048169h47.61904762v47.61904762h-47.61904762z" stroke="#000" stroke-width="35.714285715"/><path d="m515.8857142728 978.64324810169h47.61904762v47.61904762h-47.61904762z" stroke="#000" stroke-width="35.714285715"/><path d="m515.8857142728 1026.26229572169h47.61904762v47.61904762h-47.61904762z" stroke="#000" stroke-width="35.714285715"/><path d="m515.8857142728 1073.88134334169h47.61904762v47.61904762h-47.61904762z" stroke="#000" stroke-width="35.714285715"/><text style="text-anchor:middle;dominant-baseline:middle;font-family:sans-serif;font-weight:bold;font-size:.5;fill:#000;stroke:#000;stroke-width:0" transform="matrix(47.61904762 0 0 47.61904762 444.45476189042 871.50039095669)">a</text><path d="m753.9809523728 883.40515286169h47.61904762v47.61904762h-47.61904762z" stroke="#000" stroke-width="35.714285715"/><path d="m753.9809523728 931.02420048169h47.61904762v47.61904762h-47.61904762z" stroke="#000" stroke-width="35.714285715"/><path d="m753.9809523728 978.64324810169h47.61904762v47.61904762h-47.61904762z" stroke="#000" stroke-width="35.714285715"/><path d="m753.9809523728 1026.26229572169h47.61904762v47.61904762h-47.61904762z" stroke="#000" stroke-width="35.714285715"/><path d="m753.9809523728 1073.88134334169h47.61904762v47.61904762h-47.61904762z" stroke="#000" stroke-width="35.714285715"/><path d="m801.5999999928 883.40515286169h47.61904762v47.61904762h-47.61904762z" stroke="#000" stroke-width="35.714285715"/><path d="m801.5999999928 931.02420048169h47.61904762v47.61904762h-47.61904762z" stroke="#000" stroke-width="35.714285715"/><path d="m801.5999999928 978.64324810169h47.61904762v47.61904762h-47.61904762z" stroke="#000" stroke-width="35.714285715"/><path d="m801.5999999928 1026.26229572169h47.61904762v47.61904762h-47.61904762z" stroke="#000" stroke-width="35.714285715"/><path d="m801.5999999928 1073.88134334169h47.61904762v47.61904762h-47.61904762z" stroke="#000" stroke-width="35.714285715"/><path d="m849.2190476128 883.40515286169h47.61904762v47.61904762h-47.61904762z" stroke="#000" stroke-width="35.714285715"/><path d="m849.2190476128 931.02420048169h47.61904762v47.61904762h-47.61904762z" stroke="#000" stroke-width="35.714285715"/><path d="m849.2190476128 978.64324810169h47.61904762v47.61904762h-47.61904762z" stroke="#000" stroke-width="35.714285715"/><path d="m849.2190476128 1026.26229572169h47.61904762v47.61904762h-47.61904762z" stroke="#000" stroke-width="35.714285715"/><path d="m849.2190476128 1073.88134334169h47.61904762v47.61904762h-47.61904762z" stroke="#000" stroke-width="35.714285715"/><path d="m896.8380952328 883.40515286169h47.61904762v47.61904762h-47.61904762z" stroke="#000" stroke-width="35.714285715"/><path d="m896.8380952328 931.02420048169h47.61904762v47.61904762h-47.61904762z" stroke="#000" stroke-width="35.714285715"/><path d="m896.8380952328 978.64324810169h47.61904762v47.61904762h-47.61904762z" stroke="#000" stroke-width="35.714285715"/><path d="m896.8380952328 1026.26229572169h47.61904762v47.61904762h-47.61904762z" stroke="#000" stroke-width="35.714285715"/><path d="m896.8380952328 1073.88134334169h47.61904762v47.61904762h-47.61904762z" stroke="#000" stroke-width="35.714285715"/><path d="m944.4571428528 883.40515286169h47.61904762v47.61904762h-47.61904762z" stroke="#000" stroke-width="35.714285715"/><path d="m944.4571428528 931.02420048169h47.61904762v47.61904762h-47.61904762z" stroke="#000" stroke-width="35.714285715"/><path d="m944.4571428528 978.64324810169h47.61904762v47.61904762h-47.61904762z" stroke="#000" stroke-width="35.714285715"/><path d="m944.4571428528 1026.26229572169h47.61904762v47.61904762h-47.61904762z" stroke="#000" stroke-width="35.714285715"/><path d="m944.4571428528 1073.88134334169h47.61904762v47.61904762h-47.61904762z" stroke="#000" stroke-width="35.714285715"/><text style="text-anchor:middle;dominant-baseline:middle;font-family:sans-serif;font-weight:bold;font-size:.5;fill:#000;stroke:#000;stroke-width:0" transform="matrix(47.61904762 0 0 47.61904762 873.02619047042 871.50039095669)">out</text><text style="text-anchor:middle;dominant-baseline:middle;font-family:sans-serif;font-weight:bold;font-size:.5;fill:#000;stroke:#000;stroke-width:0" transform="matrix(47.61904762 0 0 47.61904762 658.74047618042 835.78134333693)">Block 0 1</text><rect fill="none" height="371.43428572171" rx="23.80952381" stroke="#808080" stroke-width="71.42857143" width="914.285714304" x="201.5999999808" y="781.01896238345"/><path d="m1331.1238095272 883.40515286169h47.61904762v47.61904762h-47.61904762z" stroke="#000" stroke-width="35.714285715"/><path d="m1331.1238095272 931.02420048169h47.61904762v47.61904762h-47.61904762z" stroke="#000" stroke-width="35.714285715"/><path d="m1331.1238095272 978.64324810169h47.61904762v47.61904762h-47.61904762z" stroke="#000" stroke-width="35.714285715"/><path d="m1331.1238095272 1026.26229572169h47.61904762v47.61904762h-47.61904762z" stroke="#000" stroke-width="35.714285715"/><path d="m1331.1238095272 1073.88134334169h47.61904762v47.61904762h-47.61904762z" stroke="#000" stroke-width="35.714285715"/><path d="m1378.7428571472 883.40515286169h47.61904762v47.61904762h-47.61904762z" stroke="#000" stroke-width="35.714285715"/><path d="m1378.7428571472 931.02420048169h47.61904762v47.61904762h-47.61904762z" stroke="#000" stroke-width="35.714285715"/><path d="m1378.7428571472 978.64324810169h47.61904762v47.61904762h-47.61904762z" stroke="#000" stroke-width="35.714285715"/><path d="m1378.7428571472 1026.26229572169h47.61904762v47.61904762h-47.61904762z" stroke="#000" stroke-width="35.714285715"/><path d="m1378.7428571472 1073.88134334169h47.61904762v47.61904762h-47.61904762z" stroke="#000" stroke-width="35.714285715"/><path d="m1426.3619047672 883.40515286169h47.61904762v47.61904762h-47.61904762z" stroke="#000" stroke-width="35.714285715"/><path d="m1426.3619047672 931.02420048169h47.61904762v47.61904762h-47.61904762z" stroke="#000" stroke-width="35.714285715"/><path d="m1426.3619047672 978.64324810169h47.61904762v47.61904762h-47.61904762z" stroke="#000" stroke-width="35.714285715"/><path d="m1426.3619047672 1026.26229572169h47.61904762v47.61904762h-47.61904762z" stroke="#000" stroke-width="35.714285715"/><path d="m1426.3619047672 1073.88134334169h47.61904762v47.61904762h-47.61904762z" stroke="#000" stroke-width="35.714285715"/><path d="m1473.9809523872 883.40515286169h47.61904762v47.61904762h-47.61904762z" stroke="#000" stroke-width="35.714285715"/><path d="m1473.9809523872 931.02420048169h47.61904762v47.61904762h-47.61904762z" stroke="#000" stroke-width="35.714285715"/><path d="m1473.9809523872 978.64324810169h47.61904762v47.61904762h-47.61904762z" stroke="#000" stroke-width="35.714285715"/><path d="m1473.9809523872 1026.26229572169h47.61904762v47.61904762h-47.61904762z" stroke="#000" stroke-width="35.714285715"/><path d="m1473.9809523872 1073.88134334169h47.61904762v47.61904762h-47.61904762z" stroke="#000" stroke-width="35.714285715"/><path d="m1521.6000000072 883.40515286169h47.61904762v47.61904762h-47.61904762z" stroke="#000" stroke-width="35.714285715"/><path d="m1521.6000000072 931.02420048169h47.61904762v47.61904762h-47.61904762z" stroke="#000" stroke-width="35.714285715"/><path d="m1521.6000000072 978.64324810169h47.61904762v47.61904762h-47.61904762z" stroke="#000" stroke-width="35.714285715"/><path d="m1521.6000000072 1026.26229572169h47.61904762v47.61904762h-47.61904762z" stroke="#000" stroke-width="35.714285715"/><path d="m1521.6000000072 1073.88134334169h47.61904762v47.61904762h-47.61904762z" stroke="#000" stroke-width="35.714285715"/><text style="text-anchor:middle;dominant-baseline:middle;font-family:sans-serif;font-weight:bold;font-size:.5;fill:#000;stroke:#000;stroke-width:0" transform="matrix(47.61904762 0 0 47.61904762 1450.16904762482 871.50039095669)">a</text><path d="m1759.6952381072 883.40515286169h47.61904762v47.61904762h-47.61904762z" stroke="#000" stroke-width="35.714285715"/><path d="m1759.6952381072 931.02420048169h47.61904762v47.61904762h-47.61904762z" stroke="#000" stroke-width="35.714285715"/><path d="m1759.6952381072 978.64324810169h47.61904762v47.61904762h-47.61904762z" stroke="#000" stroke-width="35.714285715"/><path d="m1759.6952381072 1026.26229572169h47.61904762v47.61904762h-47.61904762z" stroke="#000" stroke-width="35.714285715"/><path d="m1759.6952381072 1073.88134334169h47.61904762v47.61904762h-47.61904762z" stroke="#000" stroke-width="35.714285715"/><path d="m1807.3142857272 883.40515286169h47.61904762v47.61904762h-47.61904762z" stroke="#000" stroke-width="35.714285715"/><path d="m1807.3142857272 931.02420048169h47.61904762v47.61904762h-47.61904762z" stroke="#000" stroke-width="35.714285715"/><path d="m1807.3142857272 978.64324810169h47.61904762v47.61904762h-47.61904762z" stroke="#000" stroke-width="35.714285715"/><path d="m1807.3142857272 1026.26229572169h47.61904762v47.61904762h-47.61904762z" stroke="#000" stroke-width="35.714285715"/><path d="m1807.3142857272 1073.88134334169h47.61904762v47.61904762h-47.61904762z" stroke="#000" stroke-width="35.714285715"/><path d="m1854.9333333472 883.40515286169h47.61904762v47.61904762h-47.61904762z" stroke="#000" stroke-width="35.714285715"/><path d="m1854.9333333472 931.02420048169h47.61904762v47.61904762h-47.61904762z" stroke="#000" stroke-width="35.714285715"/><path d="m1854.9333333472 978.64324810169h47.61904762v47.61904762h-47.61904762z" stroke="#000" stroke-width="35.714285715"/><path d="m1854.9333333472 1026.26229572169h47.61904762v47.61904762h-47.61904762z" stroke="#000" stroke-width="35.714285715"/><path d="m1854.9333333472 1073.88134334169h47.61904762v47.61904762h-47.61904762z" stroke="#000" stroke-width="35.714285715"/><path d="m1902.5523809672 883.40515286169h47.61904762v47.61904762h-47.61904762z" stroke="#000" stroke-width="35.714285715"/><path d="m1902.5523809672 931.02420048169h47.61904762v47.61904762h-47.61904762z" stroke="#000" stroke-width="35.714285715"/><path d="m1902.5523809672 978.64324810169h47.61904762v47.61904762h-47.61904762z" stroke="#000" stroke-width="35.714285715"/><path d="m1902.5523809672 1026.26229572169h47.61904762v47.61904762h-47.61904762z" stroke="#000" stroke-width="35.714285715"/><path d="m1902.5523809672 1073.88134334169h47.61904762v47.61904762h-47.61904762z" stroke="#000" stroke-width="35.714285715"/><path d="m1950.1714285872 883.40515286169h47.61904762v47.61904762h-47.61904762z" stroke="#000" stroke-width="35.714285715"/><path d="m1950.1714285872 931.02420048169h47.61904762v47.61904762h-47.61904762z" stroke="#000" stroke-width="35.714285715"/><path d="m1950.1714285872 978.64324810169h47.61904762v47.61904762h-47.61904762z" stroke="#000" stroke-width="35.714285715"/><path d="m1950.1714285872 1026.26229572169h47.61904762v47.61904762h-47.61904762z" stroke="#000" stroke-width="35.714285715"/><path d="m1950.1714285872 1073.88134334169h47.61904762v47.61904762h-47.61904762z" stroke="#000" stroke-width="35.714285715"/><text style="text-anchor:middle;dominant-baseline:middle;font-family:sans-serif;font-weight:bold;font-size:.5;fill:#000;stroke:#000;stroke-width:0" transform="matrix(47.61904762 0 0 47.61904762 1878.74047620482 871.50039095669)">out</text><text style="text-anchor:middle;dominant-baseline:middle;font-family:sans-serif;font-weight:bold;font-size:.5;fill:#000;stroke:#000;stroke-width:0" transform="matrix(47.61904762 0 0 47.61904762 1664.45476191482 835.78134333693)">Block 1 1</text><rect fill="none" height="371.43428572171" rx="23.80952381" stroke="#808080" stroke-width="71.42857143" width="914.285714304" x="1207.3142857152" y="781.01896238345"/></g></svg>