<svg height="622.61276" width="726" xmlns="http://www.w3.org/2000/svg" xmlns:xlink="http://www.w3.org/1999/xlink"><g fill="#fff"><g stroke="#000"><path d="m17.2857142788 14.82409427978h691.4285714424v592.96452382138h-691.4285714424z" fill="#fff" stroke-width="71.42857143"/><text style="text-anchor:middle;dominant-baseline:middle;font-family:sans-serif;font-weight:bold;font-size:1;stroke-width:1.5" transform="matrix(47.61904762 0 0 47.61904762 362.99761904762 89.82409428128)">Map 2D</text><circle cx="310.619047618" cy="161.25742761605" fill="#f00" fill-opacity=".7" r="23.80952381" stroke-width="71.42857143"/><image stroke-width="1.5" transform="matrix(.03968238095 0 0 .03968238095 286.8096190461 137.44799904414)" xlink:href="https://raw.githubusercontent.com/minitorch/diagrams/main/robot.png"/><circle cx="363" cy="161.25742761605" fill="#ff7100" fill-opacity=".7" r="23.80952381" stroke-width="71.42857143"/><image stroke-width="1.5" transform="matrix(.03968238095 0 0 .03968238095 339.1905714281 137.44799904414)" xlink:href="https://raw.githubusercontent.com/minitorch/diagrams/main/robot.png"/><circle cx="415.380952382" cy="161.25742761605" fill="#ffe300" fill-opacity=".7" r="23.80952381" stroke-width="71.42857143"/><image stroke-width="1.5" transform="matrix(.03968238095 0 0 .03968238095 391.5715238101 137.44799904414)" xlink:href="https://raw.githubusercontent.com/minitorch/diagrams/main/robot.png"/><circle cx="310.619047618" cy="213.63837999805" fill="#af0" fill-opacity=".7" r="23.80952381" stroke-width="71.42857143"/><image stroke-width="1.5" transform="matrix(.03968238095 0 0 .03968238095 286.8096190461 189.82895142614)" xlink:href="https://raw.githubusercontent.com/minitorch/diagrams/main/robot.png"/><circle cx="363" cy="213.63837999805" fill="#39ff00" fill-opacity=".7" r="23.80952381" stroke-width="71.42857143"/><image stroke-width="1.5" transform="matrix(.03968238095 0 0 .03968238095 339.1905714281 189.82895142614)" xlink:href="https://raw.githubusercontent.com/minitorch/diagrams/main/robot.png"/><circle cx="415.380952382" cy="213.63837999805" fill="#00ff39" fill-opacity=".7" r="23.80952381" stroke-width="71.42857143"/><image stroke-width="1.5" transform="matrix(.03968238095 0 0 .03968238095 391.5715238101 189.82895142614)" xlink:href="https://raw.githubusercontent.com/minitorch/diagrams/main/robot.png"/><circle cx="310.619047618" cy="266.01933238005" fill="#0fa" fill-opacity=".7" r="23.80952381" stroke-width="71.42857143"/><image stroke-width="1.5" transform="matrix(.03968238095 0 0 .03968238095 286.8096190461 242.20990380814)" xlink:href="https://raw.githubusercontent.com/minitorch/diagrams/main/robot.png"/><circle cx="363" cy="266.01933238005" fill="#00e3ff" fill-opacity=".7" r="23.80952381" stroke-width="71.42857143"/><image stroke-width="1.5" transform="matrix(.03968238095 0 0 .03968238095 339.1905714281 242.20990380814)" xlink:href="https://raw.githubusercontent.com/minitorch/diagrams/main/robot.png"/><circle cx="415.380952382" cy="266.01933238005" fill="#0071ff" fill-opacity=".7" r="23.80952381" stroke-width="71.42857143"/><image stroke-width="1.5" transform="matrix(.03968238095 0 0 .03968238095 391.5715238101 242.20990380814)" xlink:href="https://raw.githubusercontent.com/minitorch/diagrams/main/robot.png"/><path d="m172.52380952 435.54866571677h47.61904762v47.61904762h-47.61904762z" stroke-width="35.714285715"/><path d="m172.52380952 483.16771333677h47.61904762v47.61904762h-47.61904762z" stroke-width="35.714285715"/><path d="m220.14285714 435.54866571677h47.61904762v47.61904762h-47.61904762z" stroke-width="35.714285715"/><path d="m220.14285714 483.16771333677h47.61904762v47.61904762h-47.61904762z" stroke-width="35.714285715"/><text style="text-anchor:middle;dominant-baseline:middle;font-family:sans-serif;font-weight:bold;font-size:.5;fill:#000;stroke-width:0" transform="matrix(47.61904762 0 0 47.61904762 220.14047618762 423.64390381177)">a</text><path d="m458.23809524 435.54866571677h47.61904762v47.61904762h-47.61904762z" stroke-width="35.714285715"/><path d="m458.23809524 483.16771333677h47.61904762v47.61904762h-47.61904762z" stroke-width="35.714285715"/><path d="m505.85714286 435.54866571677h47.61904762v47.61904762h-47.61904762z" stroke-width="35.714285715"/><path d="m505.85714286 483.16771333677h47.61904762v47.61904762h-47.61904762z" stroke-width="35.714285715"/><text style="text-anchor:middle;dominant-baseline:middle;font-family:sans-serif;font-weight:bold;font-size:.5;fill:#000;stroke-width:0" transform="matrix(47.61904762 0 0 47.61904762 505.85476190762 423.64390381177)">out</text><text style="text-anchor:middle;dominant-baseline:middle;font-family:sans-serif;font-weight:bold;font-size:.5;fill:#000;stroke-width:0" transform="matrix(47.61904762 0 0 47.61904762 362.99761904762 387.92485619201)">Block 0 0</text></g><rect fill="none" height="200.00571428971" rx="23.80952381" stroke="#808080" stroke-width="71.42857143" width="571.42857144" x="77.28571428" y="347.44818952453"/></g></svg>