<svg height="2425.53454" width="1016" xmlns="http://www.w3.org/2000/svg" xmlns:xlink="http://www.w3.org/1999/xlink"><g fill="#fff"><g stroke="#000"><path d="m24.19047619624 57.72811336227h967.61904760752v2309.12380087577h-967.61904760752z" fill="#fff" stroke-width="71.40046101"/><text style="text-anchor:middle;dominant-baseline:middle;font-family:sans-serif;font-weight:bold;font-size:1;stroke-width:1.5" transform="matrix(47.60030734 0 0 47.60030734 507.99761998463 132.69859742277)">Axis Sum</text><circle cx="324.738816741" cy="204.1038184635" fill="#f00" fill-opacity=".7" r="23.80015367" stroke-width="71.40046101"/><image stroke-width="1.5" transform="matrix(.03966676412 0 0 .03966676412 300.93875827161 180.30375999412)" xlink:href="https://raw.githubusercontent.com/minitorch/diagrams/main/robot.png"/><circle cx="377.099154815" cy="204.1038184635" fill="#ff7100" fill-opacity=".7" r="23.80015367" stroke-width="71.40046101"/><image stroke-width="1.5" transform="matrix(.03966676412 0 0 .03966676412 353.29909634561 180.30375999412)" xlink:href="https://raw.githubusercontent.com/minitorch/diagrams/main/robot.png"/><circle cx="429.459492889" cy="204.1038184635" fill="#ffe300" fill-opacity=".7" r="23.80015367" stroke-width="71.40046101"/><image stroke-width="1.5" transform="matrix(.03966676412 0 0 .03966676412 405.65943441961 180.30375999412)" xlink:href="https://raw.githubusercontent.com/minitorch/diagrams/main/robot.png"/><circle cx="481.819830963" cy="204.1038184635" fill="#af0" fill-opacity=".7" r="23.80015367" stroke-width="71.40046101"/><image stroke-width="1.5" transform="matrix(.03966676412 0 0 .03966676412 458.01977249361 180.30375999412)" xlink:href="https://raw.githubusercontent.com/minitorch/diagrams/main/robot.png"/><circle cx="534.180169037" cy="204.1038184635" fill="#39ff00" fill-opacity=".7" r="23.80015367" stroke-width="71.40046101"/><image stroke-width="1.5" transform="matrix(.03966676412 0 0 .03966676412 510.38011056761 180.30375999412)" xlink:href="https://raw.githubusercontent.com/minitorch/diagrams/main/robot.png"/><circle cx="586.540507111" cy="204.1038184635" fill="#00ff39" fill-opacity=".7" r="23.80015367" stroke-width="71.40046101"/><image stroke-width="1.5" transform="matrix(.03966676412 0 0 .03966676412 562.74044864161 180.30375999412)" xlink:href="https://raw.githubusercontent.com/minitorch/diagrams/main/robot.png"/><circle cx="638.900845185" cy="204.1038184635" fill="#0fa" fill-opacity=".7" r="23.80015367" stroke-width="71.40046101"/><image stroke-width="1.5" transform="matrix(.03966676412 0 0 .03966676412 615.10078671561 180.30375999412)" xlink:href="https://raw.githubusercontent.com/minitorch/diagrams/main/robot.png"/><circle cx="691.261183259" cy="204.1038184635" fill="#00e3ff" fill-opacity=".7" r="23.80015367" stroke-width="71.40046101"/><image stroke-width="1.5" transform="matrix(.03966676412 0 0 .03966676412 667.46112478961 180.30375999412)" xlink:href="https://raw.githubusercontent.com/minitorch/diagrams/main/robot.png"/><path d="m222.39815596 404.03063092715h47.60030734v47.60030734h-47.60030734z" stroke-width="35.700230505"/><path d="m222.39815596 451.63093826715h47.60030734v47.60030734h-47.60030734z" stroke-width="35.700230505"/><path d="m222.39815596 499.23124560715h47.60030734v47.60030734h-47.60030734z" stroke-width="35.700230505"/><path d="m222.39815596 546.83155294715h47.60030734v47.60030734h-47.60030734z" stroke-width="35.700230505"/><path d="m222.39815596 594.43186028715h47.60030734v47.60030734h-47.60030734z" stroke-width="35.700230505"/><path d="m222.39815596 642.03216762715h47.60030734v47.60030734h-47.60030734z" stroke-width="35.700230505"/><path d="m269.9984633 404.03063092715h47.60030734v47.60030734h-47.60030734z" stroke-width="35.700230505"/><path d="m269.9984633 451.63093826715h47.60030734v47.60030734h-47.60030734z" stroke-width="35.700230505"/><path d="m269.9984633 499.23124560715h47.60030734v47.60030734h-47.60030734z" stroke-width="35.700230505"/><path d="m269.9984633 546.83155294715h47.60030734v47.60030734h-47.60030734z" stroke-width="35.700230505"/><path d="m269.9984633 594.43186028715h47.60030734v47.60030734h-47.60030734z" stroke-width="35.700230505"/><path d="m269.9984633 642.03216762715h47.60030734v47.60030734h-47.60030734z" stroke-width="35.700230505"/><path d="m317.59877064 404.03063092715h47.60030734v47.60030734h-47.60030734z" stroke-width="35.700230505"/><path d="m317.59877064 451.63093826715h47.60030734v47.60030734h-47.60030734z" stroke-width="35.700230505"/><path d="m317.59877064 499.23124560715h47.60030734v47.60030734h-47.60030734z" stroke-width="35.700230505"/><path d="m317.59877064 546.83155294715h47.60030734v47.60030734h-47.60030734z" stroke-width="35.700230505"/><path d="m317.59877064 594.43186028715h47.60030734v47.60030734h-47.60030734z" stroke-width="35.700230505"/><path d="m317.59877064 642.03216762715h47.60030734v47.60030734h-47.60030734z" stroke-width="35.700230505"/><path d="m365.19907798 404.03063092715h47.60030734v47.60030734h-47.60030734z" stroke-width="35.700230505"/><path d="m365.19907798 451.63093826715h47.60030734v47.60030734h-47.60030734z" stroke-width="35.700230505"/><path d="m365.19907798 499.23124560715h47.60030734v47.60030734h-47.60030734z" stroke-width="35.700230505"/><path d="m365.19907798 546.83155294715h47.60030734v47.60030734h-47.60030734z" stroke-width="35.700230505"/><path d="m365.19907798 594.43186028715h47.60030734v47.60030734h-47.60030734z" stroke-width="35.700230505"/><path d="m365.19907798 642.03216762715h47.60030734v47.60030734h-47.60030734z" stroke-width="35.700230505"/><text style="text-anchor:middle;dominant-baseline:middle;font-family:sans-serif;font-weight:bold;font-size:.5;fill:#000;stroke-width:0" transform="matrix(47.60030734 0 0 47.60030734 317.59639062463 392.13055409215)">a</text><path d="m603.20061468 523.03139927715h47.60030734v47.60030734h-47.60030734z" stroke-width="35.700230505"/><path d="m650.80092202 523.03139927715h47.60030734v47.60030734h-47.60030734z" stroke-width="35.700230505"/><path d="m698.40122936 523.03139927715h47.60030734v47.60030734h-47.60030734z" stroke-width="35.700230505"/><path d="m746.0015367 523.03139927715h47.60030734v47.60030734h-47.60030734z" stroke-width="35.700230505"/><text style="text-anchor:middle;dominant-baseline:middle;font-family:sans-serif;font-weight:bold;font-size:.5;fill:#000;stroke-width:0" transform="matrix(47.60030734 0 0 47.60030734 698.39884934463 511.13132244215)">out</text><text style="text-anchor:middle;dominant-baseline:middle;font-family:sans-serif;font-weight:bold;font-size:.5;fill:#000;stroke-width:0" transform="matrix(47.60030734 0 0 47.60030734 507.99761998463 356.42556355642)">Block 0 0</text></g><rect fill="none" height="428.40847809688" rx="23.80015367" stroke="#808080" stroke-width="71.40046101" width="799.685163312" x="108.157418344" y="296.92470337835"/><path d="m222.39815596 875.27995683372h47.60030734v47.60030734h-47.60030734z" stroke="#000" stroke-width="35.700230505"/><path d="m222.39815596 922.88026417372h47.60030734v47.60030734h-47.60030734z" stroke="#000" stroke-width="35.700230505"/><path d="m222.39815596 970.48057151372h47.60030734v47.60030734h-47.60030734z" stroke="#000" stroke-width="35.700230505"/><path d="m222.39815596 1018.08087885372h47.60030734v47.60030734h-47.60030734z" stroke="#000" stroke-width="35.700230505"/><path d="m222.39815596 1065.68118619372h47.60030734v47.60030734h-47.60030734z" stroke="#000" stroke-width="35.700230505"/><path d="m222.39815596 1113.28149353372h47.60030734v47.60030734h-47.60030734z" stroke="#000" stroke-width="35.700230505"/><path d="m269.9984633 875.27995683372h47.60030734v47.60030734h-47.60030734z" stroke="#000" stroke-width="35.700230505"/><path d="m269.9984633 922.88026417372h47.60030734v47.60030734h-47.60030734z" stroke="#000" stroke-width="35.700230505"/><path d="m269.9984633 970.48057151372h47.60030734v47.60030734h-47.60030734z" stroke="#000" stroke-width="35.700230505"/><path d="m269.9984633 1018.08087885372h47.60030734v47.60030734h-47.60030734z" stroke="#000" stroke-width="35.700230505"/><path d="m269.9984633 1065.68118619372h47.60030734v47.60030734h-47.60030734z" stroke="#000" stroke-width="35.700230505"/><path d="m269.9984633 1113.28149353372h47.60030734v47.60030734h-47.60030734z" stroke="#000" stroke-width="35.700230505"/><path d="m317.59877064 875.27995683372h47.60030734v47.60030734h-47.60030734z" stroke="#000" stroke-width="35.700230505"/><path d="m317.59877064 922.88026417372h47.60030734v47.60030734h-47.60030734z" stroke="#000" stroke-width="35.700230505"/><path d="m317.59877064 970.48057151372h47.60030734v47.60030734h-47.60030734z" stroke="#000" stroke-width="35.700230505"/><path d="m317.59877064 1018.08087885372h47.60030734v47.60030734h-47.60030734z" stroke="#000" stroke-width="35.700230505"/><path d="m317.59877064 1065.68118619372h47.60030734v47.60030734h-47.60030734z" stroke="#000" stroke-width="35.700230505"/><path d="m317.59877064 1113.28149353372h47.60030734v47.60030734h-47.60030734z" stroke="#000" stroke-width="35.700230505"/><path d="m365.19907798 875.27995683372h47.60030734v47.60030734h-47.60030734z" stroke="#000" stroke-width="35.700230505"/><path d="m365.19907798 922.88026417372h47.60030734v47.60030734h-47.60030734z" stroke="#000" stroke-width="35.700230505"/><path d="m365.19907798 970.48057151372h47.60030734v47.60030734h-47.60030734z" stroke="#000" stroke-width="35.700230505"/><path d="m365.19907798 1018.08087885372h47.60030734v47.60030734h-47.60030734z" stroke="#000" stroke-width="35.700230505"/><path d="m365.19907798 1065.68118619372h47.60030734v47.60030734h-47.60030734z" stroke="#000" stroke-width="35.700230505"/><path d="m365.19907798 1113.28149353372h47.60030734v47.60030734h-47.60030734z" stroke="#000" stroke-width="35.700230505"/><text style="text-anchor:middle;dominant-baseline:middle;font-family:sans-serif;font-weight:bold;font-size:.5;fill:#000;stroke:#000;stroke-width:0" transform="matrix(47.60030734 0 0 47.60030734 317.59639062463 863.37987999872)">a</text><path d="m603.20061468 994.28072518372h47.60030734v47.60030734h-47.60030734z" stroke="#000" stroke-width="35.700230505"/><path d="m650.80092202 994.28072518372h47.60030734v47.60030734h-47.60030734z" stroke="#000" stroke-width="35.700230505"/><path d="m698.40122936 994.28072518372h47.60030734v47.60030734h-47.60030734z" stroke="#000" stroke-width="35.700230505"/><path d="m746.0015367 994.28072518372h47.60030734v47.60030734h-47.60030734z" stroke="#000" stroke-width="35.700230505"/><text style="text-anchor:middle;dominant-baseline:middle;font-family:sans-serif;font-weight:bold;font-size:.5;fill:#000;stroke:#000;stroke-width:0" transform="matrix(47.60030734 0 0 47.60030734 698.39884934463 982.38064834872)">out</text><text style="text-anchor:middle;dominant-baseline:middle;font-family:sans-serif;font-weight:bold;font-size:.5;fill:#000;stroke:#000;stroke-width:0" transform="matrix(47.60030734 0 0 47.60030734 507.99761998463 827.67488946299)">Block 0 1</text><rect fill="none" height="428.40847809688" rx="23.80015367" stroke="#808080" stroke-width="71.40046101" width="799.685163312" x="108.157418344" y="768.17402928491"/><path d="m222.39815596 1346.52928274029h47.60030734v47.60030734h-47.60030734z" stroke="#000" stroke-width="35.700230505"/><path d="m222.39815596 1394.12959008029h47.60030734v47.60030734h-47.60030734z" stroke="#000" stroke-width="35.700230505"/><path d="m222.39815596 1441.72989742029h47.60030734v47.60030734h-47.60030734z" stroke="#000" stroke-width="35.700230505"/><path d="m222.39815596 1489.33020476029h47.60030734v47.60030734h-47.60030734z" stroke="#000" stroke-width="35.700230505"/><path d="m222.39815596 1536.93051210029h47.60030734v47.60030734h-47.60030734z" stroke="#000" stroke-width="35.700230505"/><path d="m222.39815596 1584.53081944029h47.60030734v47.60030734h-47.60030734z" stroke="#000" stroke-width="35.700230505"/><path d="m269.9984633 1346.52928274029h47.60030734v47.60030734h-47.60030734z" stroke="#000" stroke-width="35.700230505"/><path d="m269.9984633 1394.12959008029h47.60030734v47.60030734h-47.60030734z" stroke="#000" stroke-width="35.700230505"/><path d="m269.9984633 1441.72989742029h47.60030734v47.60030734h-47.60030734z" stroke="#000" stroke-width="35.700230505"/><path d="m269.9984633 1489.33020476029h47.60030734v47.60030734h-47.60030734z" stroke="#000" stroke-width="35.700230505"/><path d="m269.9984633 1536.93051210029h47.60030734v47.60030734h-47.60030734z" stroke="#000" stroke-width="35.700230505"/><path d="m269.9984633 1584.53081944029h47.60030734v47.60030734h-47.60030734z" stroke="#000" stroke-width="35.700230505"/><path d="m317.59877064 1346.52928274029h47.60030734v47.60030734h-47.60030734z" stroke="#000" stroke-width="35.700230505"/><path d="m317.59877064 1394.12959008029h47.60030734v47.60030734h-47.60030734z" stroke="#000" stroke-width="35.700230505"/><path d="m317.59877064 1441.72989742029h47.60030734v47.60030734h-47.60030734z" stroke="#000" stroke-width="35.700230505"/><path d="m317.59877064 1489.33020476029h47.60030734v47.60030734h-47.60030734z" stroke="#000" stroke-width="35.700230505"/><path d="m317.59877064 1536.93051210029h47.60030734v47.60030734h-47.60030734z" stroke="#000" stroke-width="35.700230505"/><path d="m317.59877064 1584.53081944029h47.60030734v47.60030734h-47.60030734z" stroke="#000" stroke-width="35.700230505"/><path d="m365.19907798 1346.52928274029h47.60030734v47.60030734h-47.60030734z" stroke="#000" stroke-width="35.700230505"/><path d="m365.19907798 1394.12959008029h47.60030734v47.60030734h-47.60030734z" stroke="#000" stroke-width="35.700230505"/><path d="m365.19907798 1441.72989742029h47.60030734v47.60030734h-47.60030734z" stroke="#000" stroke-width="35.700230505"/><path d="m365.19907798 1489.33020476029h47.60030734v47.60030734h-47.60030734z" stroke="#000" stroke-width="35.700230505"/><path d="m365.19907798 1536.93051210029h47.60030734v47.60030734h-47.60030734z" stroke="#000" stroke-width="35.700230505"/><path d="m365.19907798 1584.53081944029h47.60030734v47.60030734h-47.60030734z" stroke="#000" stroke-width="35.700230505"/><text style="text-anchor:middle;dominant-baseline:middle;font-family:sans-serif;font-weight:bold;font-size:.5;fill:#000;stroke:#000;stroke-width:0" transform="matrix(47.60030734 0 0 47.60030734 317.59639062463 1334.62920590529)">a</text><path d="m603.20061468 1465.53005109029h47.60030734v47.60030734h-47.60030734z" stroke="#000" stroke-width="35.700230505"/><path d="m650.80092202 1465.53005109029h47.60030734v47.60030734h-47.60030734z" stroke="#000" stroke-width="35.700230505"/><path d="m698.40122936 1465.53005109029h47.60030734v47.60030734h-47.60030734z" stroke="#000" stroke-width="35.700230505"/><path d="m746.0015367 1465.53005109029h47.60030734v47.60030734h-47.60030734z" stroke="#000" stroke-width="35.700230505"/><text style="text-anchor:middle;dominant-baseline:middle;font-family:sans-serif;font-weight:bold;font-size:.5;fill:#000;stroke:#000;stroke-width:0" transform="matrix(47.60030734 0 0 47.60030734 698.39884934463 1453.62997425529)">out</text><text style="text-anchor:middle;dominant-baseline:middle;font-family:sans-serif;font-weight:bold;font-size:.5;fill:#000;stroke:#000;stroke-width:0" transform="matrix(47.60030734 0 0 47.60030734 507.99761998463 1298.92421536956)">Block 0 2</text><rect fill="none" height="428.40847809688" rx="23.80015367" stroke="#808080" stroke-width="71.40046101" width="799.685163312" x="108.157418344" y="1239.42335519148"/><path d="m222.39815596 1817.77860864686h47.60030734v47.60030734h-47.60030734z" stroke="#000" stroke-width="35.700230505"/><path d="m222.39815596 1865.37891598686h47.60030734v47.60030734h-47.60030734z" stroke="#000" stroke-width="35.700230505"/><path d="m222.39815596 1912.97922332686h47.60030734v47.60030734h-47.60030734z" stroke="#000" stroke-width="35.700230505"/><path d="m222.39815596 1960.57953066686h47.60030734v47.60030734h-47.60030734z" stroke="#000" stroke-width="35.700230505"/><path d="m222.39815596 2008.17983800686h47.60030734v47.60030734h-47.60030734z" stroke="#000" stroke-width="35.700230505"/><path d="m222.39815596 2055.78014534686h47.60030734v47.60030734h-47.60030734z" stroke="#000" stroke-width="35.700230505"/><path d="m269.9984633 1817.77860864686h47.60030734v47.60030734h-47.60030734z" stroke="#000" stroke-width="35.700230505"/><path d="m269.9984633 1865.37891598686h47.60030734v47.60030734h-47.60030734z" stroke="#000" stroke-width="35.700230505"/><path d="m269.9984633 1912.97922332686h47.60030734v47.60030734h-47.60030734z" stroke="#000" stroke-width="35.700230505"/><path d="m269.9984633 1960.57953066686h47.60030734v47.60030734h-47.60030734z" stroke="#000" stroke-width="35.700230505"/><path d="m269.9984633 2008.17983800686h47.60030734v47.60030734h-47.60030734z" stroke="#000" stroke-width="35.700230505"/><path d="m269.9984633 2055.78014534686h47.60030734v47.60030734h-47.60030734z" stroke="#000" stroke-width="35.700230505"/><path d="m317.59877064 1817.77860864686h47.60030734v47.60030734h-47.60030734z" stroke="#000" stroke-width="35.700230505"/><path d="m317.59877064 1865.37891598686h47.60030734v47.60030734h-47.60030734z" stroke="#000" stroke-width="35.700230505"/><path d="m317.59877064 1912.97922332686h47.60030734v47.60030734h-47.60030734z" stroke="#000" stroke-width="35.700230505"/><path d="m317.59877064 1960.57953066686h47.60030734v47.60030734h-47.60030734z" stroke="#000" stroke-width="35.700230505"/><path d="m317.59877064 2008.17983800686h47.60030734v47.60030734h-47.60030734z" stroke="#000" stroke-width="35.700230505"/><path d="m317.59877064 2055.78014534686h47.60030734v47.60030734h-47.60030734z" stroke="#000" stroke-width="35.700230505"/><path d="m365.19907798 1817.77860864686h47.60030734v47.60030734h-47.60030734z" stroke="#000" stroke-width="35.700230505"/><path d="m365.19907798 1865.37891598686h47.60030734v47.60030734h-47.60030734z" stroke="#000" stroke-width="35.700230505"/><path d="m365.19907798 1912.97922332686h47.60030734v47.60030734h-47.60030734z" stroke="#000" stroke-width="35.700230505"/><path d="m365.19907798 1960.57953066686h47.60030734v47.60030734h-47.60030734z" stroke="#000" stroke-width="35.700230505"/><path d="m365.19907798 2008.17983800686h47.60030734v47.60030734h-47.60030734z" stroke="#000" stroke-width="35.700230505"/><path d="m365.19907798 2055.78014534686h47.60030734v47.60030734h-47.60030734z" stroke="#000" stroke-width="35.700230505"/><text style="text-anchor:middle;dominant-baseline:middle;font-family:sans-serif;font-weight:bold;font-size:.5;fill:#000;stroke:#000;stroke-width:0" transform="matrix(47.60030734 0 0 47.60030734 317.59639062463 1805.87853181186)">a</text><path d="m603.20061468 1936.77937699686h47.60030734v47.60030734h-47.60030734z" stroke="#000" stroke-width="35.700230505"/><path d="m650.80092202 1936.77937699686h47.60030734v47.60030734h-47.60030734z" stroke="#000" stroke-width="35.700230505"/><path d="m698.40122936 1936.77937699686h47.60030734v47.60030734h-47.60030734z" stroke="#000" stroke-width="35.700230505"/><path d="m746.0015367 1936.77937699686h47.60030734v47.60030734h-47.60030734z" stroke="#000" stroke-width="35.700230505"/><text style="text-anchor:middle;dominant-baseline:middle;font-family:sans-serif;font-weight:bold;font-size:.5;fill:#000;stroke:#000;stroke-width:0" transform="matrix(47.60030734 0 0 47.60030734 698.39884934463 1924.87930016186)">out</text><text style="text-anchor:middle;dominant-baseline:middle;font-family:sans-serif;font-weight:bold;font-size:.5;fill:#000;stroke:#000;stroke-width:0" transform="matrix(47.60030734 0 0 47.60030734 507.99761998463 1770.17354127613)">Block 0 3</text><rect fill="none" height="428.40847809688" rx="23.80015367" stroke="#808080" stroke-width="71.40046101" width="799.685163312" x="108.157418344" y="1710.67268109805"/></g></svg>